<svg width="296" height="224" viewBox="0 0 296 224" fill="none" xmlns="http://www.w3.org/2000/svg">
<path d="M147.584 200.462L146.134 201.949L145.993 199L145.82 203.355L144.483 201.984L145.808 203.655L145.369 214.667H146.739L146.149 202.273L147.584 200.462Z" fill="#2D3CB9"/>
<path d="M150.284 204.129L148.833 205.616L148.693 202.667L148.519 207.021L147.182 205.651L148.507 207.322L148.069 218.333H149.438L148.849 205.94L150.284 204.129Z" fill="#2D3CB9"/>
<path d="M154.333 202.129L152.883 203.616L152.742 200.667L152.569 205.021L151.232 203.651L152.557 205.322L152.118 216.333H153.487L152.898 203.94L154.333 202.129Z" fill="#2D3CB9"/>
<path d="M144.435 203.796L142.984 205.283L142.844 202.333L142.67 206.688L141.333 205.317L142.658 206.989L142.219 218H143.589L142.999 205.606L144.435 203.796Z" fill="#2D3CB9"/>
<path d="M113.667 82.3334H4.33337V222.333H113.667V82.3334Z" fill="#E6E6E6"/>
<path d="M106.182 90.7753H11.5907V150.663H106.182V90.7753Z" fill="white"/>
<path d="M106.183 148.207H11.59V212.393H106.183V148.207Z" fill="white"/>
<path d="M61.3434 90.4681H56.4296V150.663H61.3434V90.4681Z" fill="#3F3D56"/>
<path d="M106.182 90.4681H101.268V150.663H106.182V90.4681Z" fill="#3F3D56"/>
<path d="M106.182 145.749H11.5907V150.663H106.182V145.749Z" fill="#3F3D56"/>
<path d="M24.9586 123.022L16.5046 128.705V133.406L29.3116 123.022H24.9586Z" fill="white"/>
<path d="M38.8876 123.022L16.5046 140.545V144.55L45.678 123.022H38.8876Z" fill="#57B894"/>
<path d="M16.5045 90.4681H11.5907V150.663H16.5045V90.4681Z" fill="#3F3D56"/>
<path d="M92.5144 95.382L73.6281 119.337L79.4634 119.951L95.7404 94.4607L92.5144 95.382Z" fill="#57B894"/>
<path d="M106.182 90.4681H11.5907V95.382H106.182V90.4681Z" fill="#3F3D56"/>
<path d="M106.182 118.109H11.5907V123.022H106.182V118.109Z" fill="#3F3D56"/>
<path d="M292.667 82.3334H183.333V222.333H292.667V82.3334Z" fill="#E6E6E6"/>
<path d="M285.175 90.5992H190.583V150.487H285.175V90.5992Z" fill="white"/>
<path d="M285.173 148.03H190.583V212.217H285.173V148.03Z" fill="white"/>
<path d="M240.336 90.2921H235.422V150.487H240.336V90.2921Z" fill="#3F3D56"/>
<path d="M285.174 90.2921H280.261V150.487H285.174V90.2921Z" fill="#3F3D56"/>
<path d="M285.175 145.573H190.583V150.487H285.175V145.573Z" fill="#3F3D56"/>
<path d="M203.951 122.846L195.497 128.529V133.23L208.304 122.846H203.951Z" fill="#57B894"/>
<path d="M217.88 122.846L195.497 140.369V144.374L224.67 122.846H217.88Z" fill="#57B894"/>
<path d="M195.497 90.2921H190.583V150.487H195.497V90.2921Z" fill="#3F3D56"/>
<path d="M271.507 95.206L252.62 119.161L258.455 119.775L274.733 94.2847L271.507 95.206Z" fill="#57B894"/>
<path d="M285.175 90.2921H190.583V95.206H285.175V90.2921Z" fill="#3F3D56"/>
<path d="M285.175 117.932H190.583V122.846H285.175V117.932Z" fill="#3F3D56"/>
<path d="M235.787 162.581C235.787 162.581 236.147 163.781 234.107 164.86C232.068 165.94 231.469 170.018 233.868 171.217C236.266 172.417 236.986 173.976 235.787 175.056C234.587 176.135 232.428 179.014 235.307 179.734C238.186 180.453 238.545 181.893 237.706 182.492C236.866 183.092 239.625 181.413 239.625 181.413C239.625 181.413 240.105 184.292 242.624 183.572C245.142 182.852 252.219 169.178 248.621 167.259C245.023 165.34 235.787 162.581 235.787 162.581Z" fill="#2F2E41"/>
<path d="M232.513 189.937L221.005 198.024C221.005 198.024 212.295 189.004 212.295 183.716C212.295 178.428 207.629 168.474 205.452 172.518C203.275 176.562 207.94 186.204 207.94 186.204L216.65 206.734C216.65 206.734 221.627 207.667 224.426 205.489C227.226 203.312 235.002 198.957 235.002 198.957L232.513 189.937Z" fill="#9E616A"/>
<path d="M243.867 176.406C248.677 176.406 252.576 172.507 252.576 167.697C252.576 162.887 248.677 158.987 243.867 158.987C239.057 158.987 235.157 162.887 235.157 167.697C235.157 172.507 239.057 176.406 243.867 176.406Z" fill="#9E616A"/>
<path d="M239.356 173.762C239.356 173.762 242.467 181.849 241.223 183.716C239.979 185.582 238.423 185.582 237.179 186.204C236.557 186.515 230.025 189.004 230.025 190.87C230.055 192.069 230.375 193.243 230.958 194.291L231.891 199.579L239.668 204.556L249.932 203.312L257.708 198.957C257.708 198.957 258.953 187.448 255.531 185.582C252.11 183.716 248.066 179.361 248.377 177.806C248.688 176.251 248.999 172.518 248.999 172.518L239.356 173.762Z" fill="#9E616A"/>
<path d="M255.843 197.403V197.413L255.563 200.16L255.207 203.683L254.8 207.667L254.34 212.217H231.8C231.497 209.73 230.96 207.093 230.023 205.49C229.435 204.536 229.172 203.416 229.277 202.3C229.487 200.217 230.957 198.763 230.957 198.337C230.957 197.87 228.337 195.133 227.027 193.79C226.587 193.34 226.293 193.047 226.293 193.047L230.337 189.937L230.393 190.033L230.96 191.027L232.823 194.29L232.203 196.78C232.203 196.78 233.167 196.947 234.507 197.16C236.823 197.523 240.27 198.023 241.843 198.023C243.303 198.023 245.087 198.773 246.56 199.203C246.607 199.217 246.65 199.23 246.693 199.243C247.62 199.503 248.413 199.623 248.913 199.323C248.943 199.306 248.972 199.287 249 199.267C249.261 199.09 249.543 198.948 249.84 198.843H249.843C250.921 198.462 252.023 198.157 253.143 197.93C254.403 197.653 255.51 197.46 255.78 197.413C255.78 197.413 255.781 197.413 255.782 197.412C255.782 197.412 255.783 197.412 255.783 197.412C255.784 197.412 255.785 197.412 255.785 197.412C255.786 197.413 255.786 197.413 255.787 197.413C255.823 197.407 255.843 197.403 255.843 197.403Z" fill="#FF966E"/>
<path d="M256.813 196.93C256.79 197.097 256.77 197.267 256.75 197.433C256.653 198.167 256.573 198.9 256.503 199.633C256.31 201.58 256.193 203.532 256.153 205.49C256.142 206.221 256.065 206.949 255.923 207.667C255.614 209.211 255.197 210.731 254.677 212.217H245.87C246.103 210.483 246.417 207.817 246.57 205.023V205.02C246.593 204.587 246.61 204.15 246.627 203.713C246.684 202.246 246.664 200.776 246.567 199.31C246.563 199.273 246.563 199.237 246.56 199.203C246.543 199.013 246.527 198.83 246.51 198.647C245.89 192.427 249.62 185.583 249.62 185.583C250.883 185.583 252.117 186.28 253.217 187.24C254.56 188.44 255.59 189.95 256.216 191.639C256.843 193.328 257.048 195.144 256.813 196.93Z" fill="#9E616A"/>
<path opacity="0.1" d="M256.153 205.49C256.142 206.221 256.065 206.949 255.923 207.667C255.614 209.21 255.197 210.731 254.677 212.217H245.803C246.074 209.414 246.158 206.597 246.053 203.783C246.037 203.37 246.013 202.95 245.98 202.533V202.527C245.957 202.167 245.927 201.807 245.89 201.447C245.835 201.03 245.858 200.608 245.957 200.2V200.193C246.028 199.883 246.197 199.605 246.44 199.4C246.479 199.366 246.522 199.336 246.567 199.31C246.606 199.283 246.649 199.261 246.693 199.243C246.734 199.221 246.776 199.202 246.82 199.187C247.168 199.072 247.538 199.04 247.9 199.093C248.245 199.134 248.584 199.211 248.913 199.323C250.382 199.861 251.754 200.634 252.977 201.61C253.789 202.222 254.537 202.917 255.207 203.683C255.793 204.377 256.153 205.017 256.153 205.49Z" fill="black"/>
<path d="M245.577 200.824L246.569 205.023L252.11 207.667H256.775L258.953 197.713C258.953 197.713 255.108 196.9 253.142 197.929C251.176 198.957 246.56 199.203 246.56 199.203L245.577 200.824Z" fill="#FF966E"/>
<path d="M243.938 158.955C243.938 158.955 244.337 160.284 242.078 161.48C239.819 162.676 239.154 167.194 241.812 168.522C244.469 169.851 245.267 171.579 243.938 172.774C242.609 173.97 240.217 177.159 243.406 177.957C246.595 178.754 246.994 180.348 246.064 181.013C245.134 181.677 248.19 179.817 248.19 179.817C248.19 179.817 248.721 183.006 251.512 182.209C254.302 181.411 257.086 166.919 253.976 163.187C251.084 159.716 243.938 158.955 243.938 158.955Z" fill="#2F2E41"/>
<path d="M243.089 157.587C243.09 155.641 255.189 157.778 257.686 160.496C259.415 162.378 262.042 165.21 259.841 167.206C257.64 169.202 257.338 171.08 258.94 171.874C260.542 172.667 263.705 175.093 260.849 176.721C257.993 178.348 258.039 179.991 259.114 180.38C260.189 180.769 256.744 179.802 256.744 179.802C256.744 179.802 257.092 183.016 254.19 183.001C251.288 182.985 242.963 167.037 244.951 162.604C246.801 158.482 243.089 157.587 243.089 157.587Z" fill="#2F2E41"/>
<path d="M244.351 157.161C236.562 156.692 235.781 162.554 235.781 162.554C235.834 165.947 241.222 164.294 242.719 164.8C244.524 163.501 248.004 161.044 250.492 159.29C248.686 158.018 246.557 157.28 244.351 157.161Z" fill="#2F2E41"/>
<path d="M138.724 210.333L139.333 214.167C139.333 216.421 140.229 218.583 141.823 220.177C143.417 221.771 145.579 222.667 147.833 222.667C150.088 222.667 152.25 221.771 153.844 220.177C155.438 218.583 156.333 216.421 156.333 214.167L156.338 214.114L156.942 210.333H138.724Z" fill="#2D3CB9"/>
<path d="M296 222.28H0V222.946H296V222.28Z" fill="#3F3D56"/>
<path d="M30.7447 211.476V213.436C30.7447 213.436 29.4384 223.56 25.8461 223.56C22.2537 223.56 25.1929 213.109 25.1929 213.109V211.476L30.7447 211.476Z" fill="#FFB9B9"/>
<path d="M85.2835 174.573L84.6303 172.94C84.6303 172.94 80.3848 166.735 83.324 165.102C86.2632 163.469 89.8556 171.633 89.8556 171.633L90.5087 174.246L85.2835 174.573Z" fill="#FFB9B9"/>
<path d="M71.7304 172.579C76.4913 172.579 80.3509 168.72 80.3509 163.959C80.3509 159.198 76.4913 155.338 71.7304 155.338C66.9694 155.338 63.1099 159.198 63.1099 163.959C63.1099 168.72 66.9694 172.579 71.7304 172.579Z" fill="#FFB9B9"/>
<path d="M65.5253 164.939L59.6473 169.511L67.8117 176.369L72.3833 170.817L65.5253 164.939Z" fill="#FFB9B9"/>
<path d="M70.89 212.393H40.87L43.1467 188.25L44.8367 170.32V170.317C44.8728 169.932 44.9845 169.558 45.1653 169.217C45.3461 168.875 45.5925 168.573 45.8903 168.327C46.1882 168.08 46.5317 167.895 46.9011 167.782C47.2706 167.669 47.6587 167.63 48.0433 167.667L60.5 168.847L69.6667 174.117L69.9333 176.533L79.08 183.063L72.8633 194.89L68.9533 202.333L70.89 212.393Z" fill="#FF966E"/>
<path d="M45.1141 185.676L36.6231 196.78L31.3978 212.456H23.5599L29.1118 189.269L43.7666 169.23C44.1435 168.718 44.6761 168.341 45.285 168.155C45.8938 167.97 46.5462 167.986 47.145 168.202C47.332 168.279 47.5272 168.334 47.7268 168.368L45.1141 185.676Z" fill="#FF966E"/>
<path d="M71.8937 194.494L92.305 202.822L95.897 199.23L90.8353 172.94L84.3037 174.246L86.9163 189.922L79.0787 183.064L76.4657 182.411L71.8937 194.494Z" fill="#FF966E"/>
<path d="M63.2893 166.751C62.8762 163.321 63.2602 159.842 64.4115 156.585C66.324 151.451 72.4219 152.998 75.8945 154.162C79.367 155.327 83.9683 160.197 82.7711 162.855C81.5738 165.513 75.8919 162.155 73.8652 160.443C71.8385 158.731 68.2975 163.931 68.2975 163.931L63.2893 166.751Z" fill="#2F2E41"/>
<path d="M69.3965 163.666C69.7147 162.79 69.5784 161.937 69.0921 161.76C68.6057 161.584 67.9534 162.15 67.6352 163.025C67.3169 163.901 67.4532 164.754 67.9396 164.931C68.4259 165.107 69.0782 164.541 69.3965 163.666Z" fill="#FFB9B9"/>
<path d="M239.095 97.1343L239.095 97.1349C235.635 106.659 229.886 115.186 222.353 121.964C214.82 128.742 205.736 133.562 195.901 136.001L194.498 136.349L195.318 137.539L207.732 155.556C196.365 152.161 185.943 146.137 177.317 137.957L177.057 137.711L176.7 137.685C168.456 137.098 160.418 134.875 153.053 131.152C161.856 125.309 169.08 117.366 174.064 108.028C179.321 98.1809 181.903 87.1274 181.553 75.9705C181.204 64.8136 177.935 53.9434 172.072 44.4445C166.513 35.4368 158.806 27.9609 149.653 22.68C160.241 16.4555 172.456 13.5187 184.742 14.2657C197.594 15.0472 209.882 19.8215 219.891 27.9224C229.9 36.0233 237.13 47.0467 240.573 59.4542C244.015 71.8617 243.499 85.0345 239.095 97.1343Z" fill="#B7E1D2" stroke="#57B894" stroke-width="2"/>
<path d="M56.9396 97.1959L56.9398 97.1965C60.4031 106.731 66.1563 115.268 73.6922 122.055C81.2281 128.841 90.3152 133.67 100.152 136.114L101.554 136.462L100.735 137.651L88.3241 155.683C99.6915 152.289 110.114 146.263 118.739 138.078L118.999 137.831L119.356 137.806C127.601 137.221 135.639 134.998 143.005 131.274C134.198 125.423 126.97 117.469 121.982 108.121C116.721 98.2635 114.135 87.1993 114.481 76.0326C114.827 64.8658 118.093 53.9869 123.953 44.4812C129.51 35.4667 137.216 27.9861 146.369 22.7034C135.777 16.4687 123.558 13.5247 111.271 14.2683C98.4171 15.0462 86.1294 19.8207 76.1224 27.9256C66.1153 36.0305 58.8879 47.0615 55.4489 59.4795C52.01 71.8976 52.5311 85.083 56.9396 97.1959Z" fill="#B7E1D2" stroke="#57B894" stroke-width="2"/>
<path d="M148.422 18.3092C138.284 24.1761 129.857 32.5995 123.984 42.7392C118.111 52.8789 114.997 64.3805 114.951 76.0969C114.905 87.8132 117.93 99.3349 123.724 109.513C129.517 119.691 137.878 128.169 147.97 134.102C158.111 128.237 166.539 119.814 172.414 109.674C178.288 99.5342 181.404 88.0317 181.45 76.3144C181.495 64.5971 178.47 53.0746 172.674 42.8965C166.879 32.7184 158.517 24.2407 148.422 18.3092Z" fill="#57B894"/>
<path d="M203.019 75.424C203.019 75.584 202.963 75.72 202.851 75.832C202.747 75.944 202.611 76 202.443 76C202.283 76 202.147 75.944 202.035 75.832C201.931 75.72 201.879 75.584 201.879 75.424V70.228C201.879 70.068 201.931 69.932 202.035 69.82C202.147 69.708 202.283 69.652 202.443 69.652C202.611 69.652 202.747 69.708 202.851 69.82C202.963 69.932 203.019 70.068 203.019 70.228V75.424ZM202.443 68.86C202.211 68.86 202.043 68.82 201.939 68.74C201.843 68.652 201.795 68.516 201.795 68.332V68.14C201.795 67.948 201.847 67.812 201.951 67.732C202.063 67.652 202.231 67.612 202.455 67.612C202.679 67.612 202.839 67.656 202.935 67.744C203.039 67.824 203.091 67.956 203.091 68.14V68.332C203.091 68.524 203.039 68.66 202.935 68.74C202.831 68.82 202.667 68.86 202.443 68.86ZM207.393 69.568C208.025 69.568 208.549 69.668 208.965 69.868C209.389 70.068 209.601 70.324 209.601 70.636C209.601 70.772 209.557 70.896 209.469 71.008C209.381 71.112 209.269 71.164 209.133 71.164C209.029 71.164 208.945 71.148 208.881 71.116C208.825 71.084 208.745 71.032 208.641 70.96C208.593 70.912 208.517 70.856 208.413 70.792C208.317 70.744 208.181 70.704 208.005 70.672C207.829 70.64 207.669 70.624 207.525 70.624C207.109 70.624 206.741 70.72 206.421 70.912C206.101 71.104 205.853 71.372 205.677 71.716C205.501 72.052 205.413 72.428 205.413 72.844C205.413 73.268 205.497 73.648 205.665 73.984C205.841 74.32 206.085 74.584 206.397 74.776C206.709 74.968 207.065 75.064 207.465 75.064C207.881 75.064 208.217 75 208.473 74.872C208.529 74.84 208.605 74.788 208.701 74.716C208.781 74.652 208.849 74.604 208.905 74.572C208.969 74.54 209.045 74.524 209.133 74.524C209.293 74.524 209.417 74.576 209.505 74.68C209.601 74.776 209.649 74.904 209.649 75.064C209.649 75.232 209.541 75.4 209.325 75.568C209.117 75.728 208.833 75.86 208.473 75.964C208.121 76.068 207.741 76.12 207.333 76.12C206.725 76.12 206.189 75.98 205.725 75.7C205.261 75.412 204.901 75.02 204.645 74.524C204.397 74.02 204.273 73.46 204.273 72.844C204.273 72.228 204.405 71.672 204.669 71.176C204.933 70.672 205.301 70.28 205.773 70C206.245 69.712 206.785 69.568 207.393 69.568ZM213.953 69.604C215.361 69.604 216.065 70.476 216.065 72.22V75.424C216.065 75.584 216.009 75.72 215.897 75.832C215.793 75.944 215.657 76 215.489 76C215.329 76 215.193 75.944 215.081 75.832C214.977 75.72 214.925 75.584 214.925 75.424V72.22C214.925 71.18 214.485 70.66 213.605 70.66C213.133 70.66 212.741 70.812 212.429 71.116C212.117 71.412 211.961 71.78 211.961 72.22V75.424C211.961 75.584 211.905 75.72 211.793 75.832C211.689 75.944 211.553 76 211.385 76C211.217 76 211.081 75.948 210.977 75.844C210.873 75.732 210.821 75.592 210.821 75.424V67.696C210.821 67.536 210.873 67.4 210.977 67.288C211.089 67.176 211.225 67.12 211.385 67.12C211.553 67.12 211.689 67.176 211.793 67.288C211.905 67.4 211.961 67.536 211.961 67.696V70.732C212.161 70.42 212.441 70.156 212.801 69.94C213.161 69.716 213.545 69.604 213.953 69.604ZM200.536 84.568C201.08 84.568 201.572 84.708 202.012 84.988C202.452 85.268 202.796 85.656 203.044 86.152C203.3 86.648 203.428 87.208 203.428 87.832C203.428 88.456 203.3 89.02 203.044 89.524C202.796 90.028 202.452 90.42 202.012 90.7C201.572 90.98 201.088 91.12 200.56 91.12C200.144 91.12 199.756 91.028 199.396 90.844C199.036 90.66 198.744 90.432 198.52 90.16V90.508C198.52 90.668 198.464 90.804 198.352 90.916C198.248 91.028 198.112 91.084 197.944 91.084C197.784 91.084 197.648 91.032 197.536 90.928C197.432 90.816 197.38 90.676 197.38 90.508V82.696C197.38 82.528 197.432 82.392 197.536 82.288C197.64 82.176 197.776 82.12 197.944 82.12C198.112 82.12 198.248 82.176 198.352 82.288C198.464 82.4 198.52 82.536 198.52 82.696V85.624C198.712 85.336 198.992 85.088 199.36 84.88C199.728 84.672 200.12 84.568 200.536 84.568ZM200.404 90.064C200.772 90.064 201.104 89.968 201.4 89.776C201.696 89.576 201.924 89.308 202.084 88.972C202.252 88.628 202.336 88.248 202.336 87.832C202.336 87.416 202.252 87.04 202.084 86.704C201.924 86.368 201.696 86.104 201.4 85.912C201.104 85.72 200.772 85.624 200.404 85.624C200.028 85.624 199.692 85.72 199.396 85.912C199.1 86.104 198.868 86.368 198.7 86.704C198.54 87.032 198.46 87.408 198.46 87.832C198.46 88.256 198.54 88.636 198.7 88.972C198.868 89.308 199.1 89.576 199.396 89.776C199.692 89.968 200.028 90.064 200.404 90.064ZM205.831 90.424C205.831 90.584 205.775 90.72 205.663 90.832C205.559 90.944 205.423 91 205.255 91C205.095 91 204.959 90.944 204.847 90.832C204.743 90.72 204.691 90.584 204.691 90.424V85.228C204.691 85.068 204.743 84.932 204.847 84.82C204.959 84.708 205.095 84.652 205.255 84.652C205.423 84.652 205.559 84.708 205.663 84.82C205.775 84.932 205.831 85.068 205.831 85.228V90.424ZM205.255 83.86C205.023 83.86 204.855 83.82 204.751 83.74C204.655 83.652 204.607 83.516 204.607 83.332V83.14C204.607 82.948 204.659 82.812 204.763 82.732C204.875 82.652 205.043 82.612 205.267 82.612C205.491 82.612 205.651 82.656 205.747 82.744C205.851 82.824 205.903 82.956 205.903 83.14V83.332C205.903 83.524 205.851 83.66 205.747 83.74C205.643 83.82 205.479 83.86 205.255 83.86ZM212.99 87.616C212.982 87.76 212.922 87.884 212.81 87.988C212.698 88.084 212.566 88.132 212.414 88.132H208.19C208.246 88.716 208.466 89.184 208.85 89.536C209.242 89.888 209.718 90.064 210.278 90.064C210.662 90.064 210.974 90.008 211.214 89.896C211.454 89.784 211.666 89.64 211.85 89.464C211.97 89.392 212.086 89.356 212.198 89.356C212.334 89.356 212.446 89.404 212.534 89.5C212.63 89.596 212.678 89.708 212.678 89.836C212.678 90.004 212.598 90.156 212.438 90.292C212.206 90.524 211.898 90.72 211.514 90.88C211.13 91.04 210.738 91.12 210.338 91.12C209.69 91.12 209.118 90.984 208.622 90.712C208.134 90.44 207.754 90.06 207.482 89.572C207.218 89.084 207.086 88.532 207.086 87.916C207.086 87.244 207.222 86.656 207.494 86.152C207.774 85.64 208.138 85.248 208.586 84.976C209.042 84.704 209.53 84.568 210.05 84.568C210.562 84.568 211.042 84.7 211.49 84.964C211.938 85.228 212.298 85.592 212.57 86.056C212.842 86.52 212.982 87.04 212.99 87.616ZM210.05 85.624C209.602 85.624 209.214 85.752 208.886 86.008C208.558 86.256 208.342 86.644 208.238 87.172H211.778V87.076C211.738 86.652 211.546 86.304 211.202 86.032C210.866 85.76 210.482 85.624 210.05 85.624ZM216.018 85.828V89.404C216.018 89.804 216.198 90.004 216.558 90.004C216.614 90.004 216.69 89.992 216.786 89.968C216.882 89.936 216.958 89.92 217.014 89.92C217.118 89.92 217.206 89.964 217.278 90.052C217.35 90.14 217.386 90.252 217.386 90.388C217.386 90.556 217.29 90.7 217.098 90.82C216.906 90.94 216.69 91 216.45 91C216.186 91 215.942 90.972 215.718 90.916C215.502 90.86 215.306 90.72 215.13 90.496C214.962 90.264 214.878 89.916 214.878 89.452V85.828H214.182C214.03 85.828 213.902 85.78 213.798 85.684C213.702 85.58 213.654 85.452 213.654 85.3C213.654 85.148 213.702 85.024 213.798 84.928C213.902 84.832 214.03 84.784 214.182 84.784H214.878V83.776C214.878 83.616 214.93 83.48 215.034 83.368C215.146 83.256 215.286 83.2 215.454 83.2C215.614 83.2 215.746 83.256 215.85 83.368C215.962 83.48 216.018 83.616 216.018 83.776V84.784H217.014C217.166 84.784 217.29 84.836 217.386 84.94C217.49 85.036 217.542 85.16 217.542 85.312C217.542 85.464 217.49 85.588 217.386 85.684C217.29 85.78 217.166 85.828 217.014 85.828H216.018ZM224.334 87.616C224.326 87.76 224.266 87.884 224.154 87.988C224.042 88.084 223.91 88.132 223.758 88.132H219.534C219.59 88.716 219.81 89.184 220.194 89.536C220.586 89.888 221.062 90.064 221.622 90.064C222.006 90.064 222.318 90.008 222.558 89.896C222.798 89.784 223.01 89.64 223.194 89.464C223.314 89.392 223.43 89.356 223.542 89.356C223.678 89.356 223.79 89.404 223.878 89.5C223.974 89.596 224.022 89.708 224.022 89.836C224.022 90.004 223.942 90.156 223.782 90.292C223.55 90.524 223.242 90.72 222.858 90.88C222.474 91.04 222.082 91.12 221.682 91.12C221.034 91.12 220.462 90.984 219.966 90.712C219.478 90.44 219.098 90.06 218.826 89.572C218.562 89.084 218.43 88.532 218.43 87.916C218.43 87.244 218.566 86.656 218.838 86.152C219.118 85.64 219.482 85.248 219.93 84.976C220.386 84.704 220.874 84.568 221.394 84.568C221.906 84.568 222.386 84.7 222.834 84.964C223.282 85.228 223.642 85.592 223.914 86.056C224.186 86.52 224.326 87.04 224.334 87.616ZM221.394 85.624C220.946 85.624 220.558 85.752 220.23 86.008C219.902 86.256 219.686 86.644 219.582 87.172H223.122V87.076C223.082 86.652 222.89 86.304 222.546 86.032C222.21 85.76 221.826 85.624 221.394 85.624ZM207.954 105.988C207.762 105.988 207.614 105.936 207.51 105.832C207.414 105.728 207.366 105.576 207.366 105.376V105.148C207.366 104.956 207.414 104.808 207.51 104.704C207.614 104.6 207.762 104.548 207.954 104.548H208.074C208.274 104.548 208.422 104.6 208.518 104.704C208.622 104.808 208.674 104.956 208.674 105.148V105.376C208.674 105.784 208.474 105.988 208.074 105.988H207.954ZM210.602 105.988C210.41 105.988 210.262 105.936 210.158 105.832C210.062 105.728 210.014 105.576 210.014 105.376V105.148C210.014 104.956 210.062 104.808 210.158 104.704C210.262 104.6 210.41 104.548 210.602 104.548H210.722C210.922 104.548 211.07 104.6 211.166 104.704C211.27 104.808 211.322 104.956 211.322 105.148V105.376C211.322 105.784 211.122 105.988 210.722 105.988H210.602ZM213.251 105.988C213.059 105.988 212.911 105.936 212.807 105.832C212.711 105.728 212.663 105.576 212.663 105.376V105.148C212.663 104.956 212.711 104.808 212.807 104.704C212.911 104.6 213.059 104.548 213.251 104.548H213.371C213.571 104.548 213.719 104.6 213.815 104.704C213.919 104.808 213.971 104.956 213.971 105.148V105.376C213.971 105.784 213.771 105.988 213.371 105.988H213.251Z" fill="#57B894"/>
<path d="M77.3519 75.424C77.3519 75.584 77.2959 75.72 77.1839 75.832C77.0799 75.944 76.9439 76 76.7759 76C76.6159 76 76.4799 75.944 76.3679 75.832C76.2639 75.72 76.2119 75.584 76.2119 75.424V70.228C76.2119 70.068 76.2639 69.932 76.3679 69.82C76.4799 69.708 76.6159 69.652 76.7759 69.652C76.9439 69.652 77.0799 69.708 77.1839 69.82C77.2959 69.932 77.3519 70.068 77.3519 70.228V75.424ZM76.7759 68.86C76.5439 68.86 76.3759 68.82 76.2719 68.74C76.1759 68.652 76.1279 68.516 76.1279 68.332V68.14C76.1279 67.948 76.1799 67.812 76.2839 67.732C76.3959 67.652 76.5639 67.612 76.7879 67.612C77.0119 67.612 77.1719 67.656 77.2679 67.744C77.3719 67.824 77.4239 67.956 77.4239 68.14V68.332C77.4239 68.524 77.3719 68.66 77.2679 68.74C77.1639 68.82 76.9999 68.86 76.7759 68.86ZM81.7267 69.568C82.3587 69.568 82.8827 69.668 83.2987 69.868C83.7227 70.068 83.9347 70.324 83.9347 70.636C83.9347 70.772 83.8907 70.896 83.8027 71.008C83.7147 71.112 83.6027 71.164 83.4667 71.164C83.3627 71.164 83.2787 71.148 83.2147 71.116C83.1587 71.084 83.0787 71.032 82.9747 70.96C82.9267 70.912 82.8507 70.856 82.7467 70.792C82.6507 70.744 82.5147 70.704 82.3387 70.672C82.1627 70.64 82.0027 70.624 81.8587 70.624C81.4427 70.624 81.0747 70.72 80.7547 70.912C80.4347 71.104 80.1867 71.372 80.0107 71.716C79.8347 72.052 79.7467 72.428 79.7467 72.844C79.7467 73.268 79.8307 73.648 79.9987 73.984C80.1747 74.32 80.4187 74.584 80.7307 74.776C81.0427 74.968 81.3987 75.064 81.7987 75.064C82.2147 75.064 82.5507 75 82.8067 74.872C82.8627 74.84 82.9387 74.788 83.0347 74.716C83.1147 74.652 83.1827 74.604 83.2387 74.572C83.3027 74.54 83.3787 74.524 83.4667 74.524C83.6267 74.524 83.7507 74.576 83.8387 74.68C83.9347 74.776 83.9827 74.904 83.9827 75.064C83.9827 75.232 83.8747 75.4 83.6587 75.568C83.4507 75.728 83.1667 75.86 82.8067 75.964C82.4547 76.068 82.0747 76.12 81.6667 76.12C81.0587 76.12 80.5227 75.98 80.0587 75.7C79.5947 75.412 79.2347 75.02 78.9787 74.524C78.7307 74.02 78.6067 73.46 78.6067 72.844C78.6067 72.228 78.7387 71.672 79.0027 71.176C79.2667 70.672 79.6347 70.28 80.1067 70C80.5787 69.712 81.1187 69.568 81.7267 69.568ZM88.2867 69.604C89.6947 69.604 90.3987 70.476 90.3987 72.22V75.424C90.3987 75.584 90.3427 75.72 90.2307 75.832C90.1267 75.944 89.9907 76 89.8227 76C89.6627 76 89.5267 75.944 89.4147 75.832C89.3107 75.72 89.2587 75.584 89.2587 75.424V72.22C89.2587 71.18 88.8187 70.66 87.9387 70.66C87.4667 70.66 87.0747 70.812 86.7627 71.116C86.4507 71.412 86.2947 71.78 86.2947 72.22V75.424C86.2947 75.584 86.2387 75.72 86.1267 75.832C86.0227 75.944 85.8867 76 85.7187 76C85.5507 76 85.4147 75.948 85.3107 75.844C85.2067 75.732 85.1547 75.592 85.1547 75.424V67.696C85.1547 67.536 85.2067 67.4 85.3107 67.288C85.4227 67.176 85.5587 67.12 85.7187 67.12C85.8867 67.12 86.0227 67.176 86.1267 67.288C86.2387 67.4 86.2947 67.536 86.2947 67.696V70.732C86.4947 70.42 86.7747 70.156 87.1347 69.94C87.4947 69.716 87.8787 69.604 88.2867 69.604ZM65.8283 84.568C66.3723 84.568 66.8643 84.708 67.3043 84.988C67.7443 85.268 68.0883 85.656 68.3363 86.152C68.5923 86.648 68.7203 87.208 68.7203 87.832C68.7203 88.456 68.5923 89.02 68.3363 89.524C68.0883 90.028 67.7443 90.42 67.3043 90.7C66.8643 90.98 66.3803 91.12 65.8523 91.12C65.4363 91.12 65.0483 91.028 64.6883 90.844C64.3283 90.66 64.0363 90.432 63.8123 90.16V90.508C63.8123 90.668 63.7563 90.804 63.6443 90.916C63.5403 91.028 63.4043 91.084 63.2363 91.084C63.0763 91.084 62.9403 91.032 62.8283 90.928C62.7243 90.816 62.6723 90.676 62.6723 90.508V82.696C62.6723 82.528 62.7243 82.392 62.8283 82.288C62.9323 82.176 63.0683 82.12 63.2363 82.12C63.4043 82.12 63.5403 82.176 63.6443 82.288C63.7563 82.4 63.8123 82.536 63.8123 82.696V85.624C64.0043 85.336 64.2843 85.088 64.6523 84.88C65.0203 84.672 65.4123 84.568 65.8283 84.568ZM65.6963 90.064C66.0643 90.064 66.3963 89.968 66.6923 89.776C66.9883 89.576 67.2163 89.308 67.3763 88.972C67.5443 88.628 67.6283 88.248 67.6283 87.832C67.6283 87.416 67.5443 87.04 67.3763 86.704C67.2163 86.368 66.9883 86.104 66.6923 85.912C66.3963 85.72 66.0643 85.624 65.6963 85.624C65.3203 85.624 64.9843 85.72 64.6883 85.912C64.3923 86.104 64.1603 86.368 63.9923 86.704C63.8323 87.032 63.7523 87.408 63.7523 87.832C63.7523 88.256 63.8323 88.636 63.9923 88.972C64.1603 89.308 64.3923 89.576 64.6883 89.776C64.9843 89.968 65.3203 90.064 65.6963 90.064ZM73.1754 84.568C73.3834 84.568 73.5634 84.624 73.7154 84.736C73.8674 84.84 73.9434 84.972 73.9434 85.132C73.9434 85.324 73.8914 85.472 73.7874 85.576C73.6914 85.672 73.5714 85.72 73.4274 85.72C73.3554 85.72 73.2474 85.696 73.1034 85.648C72.9354 85.592 72.8034 85.564 72.7074 85.564C72.4594 85.564 72.2154 85.652 71.9754 85.828C71.7434 85.996 71.5514 86.232 71.3994 86.536C71.2554 86.832 71.1834 87.164 71.1834 87.532V90.424C71.1834 90.584 71.1274 90.72 71.0154 90.832C70.9114 90.944 70.7754 91 70.6074 91C70.4394 91 70.3034 90.948 70.1994 90.844C70.0954 90.732 70.0434 90.592 70.0434 90.424V85.288C70.0434 85.128 70.0954 84.992 70.1994 84.88C70.3114 84.768 70.4474 84.712 70.6074 84.712C70.7754 84.712 70.9114 84.768 71.0154 84.88C71.1274 84.992 71.1834 85.128 71.1834 85.288V85.9C71.3594 85.508 71.6234 85.192 71.9754 84.952C72.3274 84.704 72.7274 84.576 73.1754 84.568ZM79.9598 84.628C80.1278 84.628 80.2638 84.684 80.3678 84.796C80.4798 84.9 80.5358 85.04 80.5358 85.216V90.424C80.5358 90.584 80.4798 90.72 80.3678 90.832C80.2638 90.944 80.1278 91 79.9598 91C79.7918 91 79.6558 90.948 79.5518 90.844C79.4478 90.732 79.3958 90.592 79.3958 90.424V90.112C79.1878 90.392 78.9038 90.632 78.5438 90.832C78.1838 91.024 77.7958 91.12 77.3798 91.12C76.8358 91.12 76.3398 90.98 75.8918 90.7C75.4518 90.42 75.1038 90.032 74.8478 89.536C74.5998 89.032 74.4758 88.468 74.4758 87.844C74.4758 87.22 74.5998 86.66 74.8478 86.164C75.1038 85.66 75.4518 85.268 75.8918 84.988C76.3318 84.708 76.8158 84.568 77.3438 84.568C77.7678 84.568 78.1598 84.656 78.5198 84.832C78.8878 85.008 79.1798 85.232 79.3958 85.504V85.216C79.3958 85.048 79.4478 84.908 79.5518 84.796C79.6558 84.684 79.7918 84.628 79.9598 84.628ZM77.5118 90.064C77.8878 90.064 78.2198 89.968 78.5078 89.776C78.8038 89.584 79.0318 89.32 79.1918 88.984C79.3598 88.648 79.4438 88.268 79.4438 87.844C79.4438 87.428 79.3598 87.052 79.1918 86.716C79.0318 86.38 78.8038 86.116 78.5078 85.924C78.2198 85.724 77.8878 85.624 77.5118 85.624C77.1358 85.624 76.7998 85.72 76.5038 85.912C76.2158 86.104 75.9878 86.368 75.8198 86.704C75.6598 87.04 75.5798 87.42 75.5798 87.844C75.5798 88.268 75.6598 88.648 75.8198 88.984C75.9878 89.32 76.2158 89.584 76.5038 89.776C76.7998 89.968 77.1358 90.064 77.5118 90.064ZM86.7937 84.712C86.9617 84.712 87.0977 84.768 87.2017 84.88C87.3137 84.992 87.3697 85.128 87.3697 85.288V88.48C87.3697 89.312 87.1377 89.96 86.6737 90.424C86.2177 90.88 85.5697 91.108 84.7297 91.108C83.8977 91.108 83.2537 90.88 82.7977 90.424C82.3417 89.96 82.1137 89.312 82.1137 88.48V85.288C82.1137 85.128 82.1657 84.992 82.2697 84.88C82.3817 84.768 82.5177 84.712 82.6777 84.712C82.8457 84.712 82.9817 84.768 83.0857 84.88C83.1977 84.992 83.2537 85.128 83.2537 85.288V88.48C83.2537 89.528 83.7457 90.052 84.7297 90.052C85.2177 90.052 85.5897 89.92 85.8457 89.656C86.1017 89.392 86.2297 89 86.2297 88.48V85.288C86.2297 85.128 86.2817 84.992 86.3857 84.88C86.4977 84.768 86.6337 84.712 86.7937 84.712ZM91.8107 84.568C92.4427 84.568 92.9667 84.668 93.3827 84.868C93.8067 85.068 94.0187 85.324 94.0187 85.636C94.0187 85.772 93.9747 85.896 93.8867 86.008C93.7987 86.112 93.6867 86.164 93.5507 86.164C93.4467 86.164 93.3627 86.148 93.2987 86.116C93.2427 86.084 93.1627 86.032 93.0587 85.96C93.0107 85.912 92.9347 85.856 92.8307 85.792C92.7347 85.744 92.5987 85.704 92.4227 85.672C92.2467 85.64 92.0867 85.624 91.9427 85.624C91.5267 85.624 91.1587 85.72 90.8387 85.912C90.5187 86.104 90.2707 86.372 90.0947 86.716C89.9187 87.052 89.8307 87.428 89.8307 87.844C89.8307 88.268 89.9147 88.648 90.0827 88.984C90.2587 89.32 90.5027 89.584 90.8147 89.776C91.1267 89.968 91.4827 90.064 91.8827 90.064C92.2987 90.064 92.6347 90 92.8907 89.872C92.9467 89.84 93.0227 89.788 93.1187 89.716C93.1987 89.652 93.2667 89.604 93.3227 89.572C93.3867 89.54 93.4627 89.524 93.5507 89.524C93.7107 89.524 93.8347 89.576 93.9227 89.68C94.0187 89.776 94.0667 89.904 94.0667 90.064C94.0667 90.232 93.9587 90.4 93.7427 90.568C93.5347 90.728 93.2507 90.86 92.8907 90.964C92.5387 91.068 92.1587 91.12 91.7507 91.12C91.1427 91.12 90.6067 90.98 90.1427 90.7C89.6787 90.412 89.3187 90.02 89.0627 89.524C88.8147 89.02 88.6907 88.46 88.6907 87.844C88.6907 87.228 88.8227 86.672 89.0867 86.176C89.3507 85.672 89.7187 85.28 90.1907 85C90.6627 84.712 91.2027 84.568 91.8107 84.568ZM98.3707 84.604C99.7787 84.604 100.483 85.476 100.483 87.22V90.424C100.483 90.584 100.427 90.72 100.315 90.832C100.211 90.944 100.075 91 99.9067 91C99.7467 91 99.6107 90.944 99.4987 90.832C99.3947 90.72 99.3427 90.584 99.3427 90.424V87.22C99.3427 86.18 98.9027 85.66 98.0227 85.66C97.5507 85.66 97.1587 85.812 96.8467 86.116C96.5347 86.412 96.3787 86.78 96.3787 87.22V90.424C96.3787 90.584 96.3227 90.72 96.2107 90.832C96.1067 90.944 95.9707 91 95.8027 91C95.6347 91 95.4987 90.948 95.3947 90.844C95.2907 90.732 95.2387 90.592 95.2387 90.424V82.696C95.2387 82.536 95.2907 82.4 95.3947 82.288C95.5067 82.176 95.6427 82.12 95.8027 82.12C95.9707 82.12 96.1067 82.176 96.2107 82.288C96.3227 82.4 96.3787 82.536 96.3787 82.696V85.732C96.5787 85.42 96.8587 85.156 97.2187 84.94C97.5787 84.716 97.9627 84.604 98.3707 84.604ZM107.708 87.616C107.7 87.76 107.64 87.884 107.528 87.988C107.416 88.084 107.284 88.132 107.132 88.132H102.908C102.964 88.716 103.184 89.184 103.568 89.536C103.96 89.888 104.436 90.064 104.996 90.064C105.38 90.064 105.692 90.008 105.932 89.896C106.172 89.784 106.384 89.64 106.568 89.464C106.688 89.392 106.804 89.356 106.916 89.356C107.052 89.356 107.164 89.404 107.252 89.5C107.348 89.596 107.396 89.708 107.396 89.836C107.396 90.004 107.316 90.156 107.156 90.292C106.924 90.524 106.616 90.72 106.232 90.88C105.848 91.04 105.456 91.12 105.056 91.12C104.408 91.12 103.836 90.984 103.34 90.712C102.852 90.44 102.472 90.06 102.2 89.572C101.936 89.084 101.804 88.532 101.804 87.916C101.804 87.244 101.94 86.656 102.212 86.152C102.492 85.64 102.856 85.248 103.304 84.976C103.76 84.704 104.248 84.568 104.768 84.568C105.28 84.568 105.76 84.7 106.208 84.964C106.656 85.228 107.016 85.592 107.288 86.056C107.56 86.52 107.7 87.04 107.708 87.616ZM104.768 85.624C104.32 85.624 103.932 85.752 103.604 86.008C103.276 86.256 103.06 86.644 102.956 87.172H106.496V87.076C106.456 86.652 106.264 86.304 105.92 86.032C105.584 85.76 105.2 85.624 104.768 85.624ZM82.2873 105.988C82.0953 105.988 81.9473 105.936 81.8433 105.832C81.7473 105.728 81.6993 105.576 81.6993 105.376V105.148C81.6993 104.956 81.7473 104.808 81.8433 104.704C81.9473 104.6 82.0953 104.548 82.2873 104.548H82.4073C82.6073 104.548 82.7553 104.6 82.8513 104.704C82.9553 104.808 83.0073 104.956 83.0073 105.148V105.376C83.0073 105.784 82.8073 105.988 82.4073 105.988H82.2873ZM84.9358 105.988C84.7438 105.988 84.5958 105.936 84.4918 105.832C84.3958 105.728 84.3478 105.576 84.3478 105.376V105.148C84.3478 104.956 84.3958 104.808 84.4918 104.704C84.5958 104.6 84.7438 104.548 84.9358 104.548H85.0558C85.2558 104.548 85.4038 104.6 85.4998 104.704C85.6038 104.808 85.6558 104.956 85.6558 105.148V105.376C85.6558 105.784 85.4558 105.988 85.0558 105.988H84.9358ZM87.5842 105.988C87.3922 105.988 87.2442 105.936 87.1402 105.832C87.0442 105.728 86.9962 105.576 86.9962 105.376V105.148C86.9962 104.956 87.0442 104.808 87.1402 104.704C87.2442 104.6 87.3922 104.548 87.5842 104.548H87.7042C87.9042 104.548 88.0522 104.6 88.1482 104.704C88.2522 104.808 88.3042 104.956 88.3042 105.148V105.376C88.3042 105.784 88.1042 105.988 87.7042 105.988H87.5842Z" fill="#57B894"/>
<path d="M161.046 33.5791C160.421 32.2284 158.88 31.685 157.609 32.3675C157.6 32.3725 154.656 33.9637 154.656 33.9637L155.119 32.5051C155.166 32.3569 155.092 32.1969 154.954 32.1483C154.816 32.0996 154.665 32.1806 154.618 32.3288L153.949 34.4383C153.902 34.5866 153.976 34.7465 154.114 34.7952L156.079 35.4873C156.218 35.5359 156.368 35.455 156.415 35.3067C156.462 35.1585 156.388 34.9985 156.25 34.9499L154.885 34.4694L157.84 32.8719L157.841 32.8715C158.85 32.3284 160.075 32.7597 160.571 33.8332C160.812 34.3528 160.848 34.9444 160.672 35.4979C160.497 36.0514 160.13 36.5014 159.645 36.7625L155.47 39.008C155.407 39.0424 155.336 39.0481 155.269 39.0245C155.202 39.001 155.148 38.951 155.117 38.8835L153.308 34.9751C153.195 34.7291 153.066 34.4504 153.065 34.4483C152.824 33.9287 152.789 33.3371 152.964 32.7836C153.14 32.2301 153.506 31.7801 153.995 31.5172C154.736 31.1178 155.747 31.2684 156.295 31.8597C156.398 31.9694 156.552 32.2065 156.552 32.2065C156.635 32.3339 156.8 32.3639 156.92 32.2735C157.04 32.1831 157.07 32.0068 156.987 31.8793C156.987 31.8793 156.807 31.6036 156.673 31.4596C155.963 30.6942 154.711 30.5021 153.762 31.0133C153.146 31.3446 152.686 31.9107 152.464 32.6076C152.244 33.304 152.288 34.0475 152.59 34.7013C152.594 34.7085 152.706 34.9514 152.835 35.2302L154.643 39.1387C154.737 39.3406 154.899 39.491 155.099 39.5616C155.3 39.6322 155.515 39.6145 155.705 39.5124L159.875 37.2685C160.491 36.9373 160.952 36.3711 161.173 35.6742C161.394 34.9785 161.349 34.2338 161.046 33.5791Z" fill="#F1F1F1"/>
<path d="M159.553 116.203C158.82 113.211 155.926 111.45 153.1 112.275C153.079 112.281 146.527 114.214 146.527 114.214L148.028 111.475C148.181 111.196 148.094 110.842 147.834 110.684C147.575 110.527 147.24 110.625 147.088 110.903L144.917 114.864C144.765 115.142 144.852 115.497 145.111 115.654L148.801 117.899C149.061 118.057 149.395 117.959 149.548 117.681C149.701 117.402 149.614 117.048 149.354 116.89L146.792 115.332L153.368 113.391L153.37 113.391C155.615 112.733 157.915 114.132 158.497 116.51C158.779 117.661 158.621 118.869 158.051 119.908C157.482 120.947 156.569 121.695 155.489 122.012L146.202 124.73C146.062 124.772 145.915 124.752 145.79 124.676C145.664 124.6 145.575 124.476 145.538 124.326L143.418 115.668C143.284 115.124 143.133 114.506 143.132 114.502C142.85 113.35 143.009 112.143 143.578 111.104C144.148 110.064 145.061 109.316 146.148 108.998C147.798 108.514 149.775 109.254 150.651 110.683C150.814 110.949 151.032 111.493 151.032 111.493C151.15 111.786 151.47 111.918 151.747 111.787C152.025 111.657 152.154 111.315 152.036 111.022C152.036 111.022 151.781 110.389 151.568 110.041C150.435 108.191 147.988 107.263 145.875 107.882C144.506 108.283 143.357 109.224 142.64 110.533C141.923 111.841 141.724 113.358 142.077 114.806C142.081 114.822 142.212 115.36 142.364 115.978L144.485 124.635C144.594 125.083 144.862 125.456 145.238 125.685C145.615 125.914 146.055 125.971 146.477 125.848L155.756 123.131C157.126 122.73 158.274 121.788 158.992 120.48C159.708 119.174 159.908 117.654 159.553 116.203Z" fill="#F1F1F1"/>
<path d="M137.535 75.0702C135.114 74.3615 132.634 75.8688 132.005 78.4317C132 78.4506 130.555 84.3989 130.555 84.3989L129.269 82.0529C129.139 81.8144 128.852 81.7305 128.63 81.8656C128.408 82.0008 128.333 82.3043 128.464 82.5427L130.323 85.9357C130.454 86.1742 130.74 86.2581 130.963 86.1229L134.124 84.2C134.346 84.0648 134.42 83.7613 134.29 83.5229C134.159 83.2844 133.872 83.2005 133.65 83.3356L131.456 84.6706L132.906 78.6999L132.906 78.6985C133.405 76.6617 135.375 75.4634 137.298 76.0266C138.23 76.2993 139.012 76.9403 139.5 77.8305C139.987 78.7207 140.123 79.7551 139.883 80.7343L137.82 89.1571C137.789 89.2848 137.713 89.391 137.605 89.4564C137.498 89.5218 137.372 89.5385 137.251 89.5031L130.247 87.4523C129.807 87.3232 129.307 87.177 129.303 87.1759C128.372 86.9032 127.59 86.2622 127.102 85.372C126.614 84.4818 126.478 83.4475 126.72 82.4614C127.086 80.9647 128.454 79.7362 129.835 79.6642C130.092 79.6504 130.569 79.7127 130.569 79.7127C130.825 79.746 131.055 79.5523 131.082 79.2798C131.109 79.0073 130.924 78.7599 130.667 78.7267C130.667 78.7267 130.112 78.6545 129.776 78.6718C127.988 78.765 126.286 80.2802 125.818 82.1965C125.513 83.4388 125.684 84.74 126.298 85.8609C126.912 86.981 127.895 87.787 129.066 88.1306C129.079 88.1344 129.514 88.2624 130.014 88.4081L137.018 90.4589C137.379 90.5648 137.757 90.5156 138.079 90.3194C138.402 90.1233 138.631 89.8037 138.725 89.4206L140.786 81.005C141.09 79.7627 140.919 78.4616 140.305 77.3407C139.692 76.221 138.708 75.4137 137.535 75.0702Z" fill="#F1F1F1"/>
<path d="M160.867 66.6074C160.522 65.1993 159.16 64.3703 157.83 64.7586C157.82 64.7615 154.737 65.671 154.737 65.671L155.443 64.3821C155.515 64.2511 155.474 64.0843 155.352 64.0101C155.23 63.9358 155.072 63.9819 155 64.1129L153.979 65.977C153.907 66.1081 153.948 66.2748 154.07 66.3491L155.807 67.4055C155.929 67.4798 156.086 67.4337 156.158 67.3027C156.23 67.1716 156.189 67.0049 156.067 66.9306L154.861 66.1972L157.956 65.2839L157.957 65.2837C159.014 64.9743 160.096 65.6326 160.37 66.7517C160.503 67.2934 160.428 67.8617 160.16 68.3507C159.892 68.8398 159.462 69.192 158.954 69.3408L154.584 70.6201C154.518 70.6399 154.449 70.6307 154.389 70.5948C154.33 70.5588 154.288 70.5005 154.271 70.4301L153.273 66.3556C153.21 66.0992 153.139 65.8087 153.139 65.8065C153.006 65.2648 153.081 64.6965 153.349 64.2074C153.617 63.7183 154.046 63.3661 154.558 63.2163C155.335 62.9886 156.265 63.3372 156.677 64.0096C156.754 64.1345 156.857 64.3907 156.857 64.3907C156.912 64.5285 157.063 64.5904 157.193 64.5292C157.324 64.4679 157.384 64.3068 157.329 64.169C157.329 64.169 157.209 63.8709 157.109 63.7072C156.576 62.8368 155.424 62.3997 154.43 62.6912C153.785 62.8799 153.245 63.323 152.907 63.9388C152.57 64.5542 152.476 65.2683 152.642 65.9498C152.644 65.9572 152.706 66.2104 152.777 66.5012L153.775 70.5756C153.827 70.7861 153.953 70.9617 154.13 71.0694C154.307 71.1772 154.514 71.2043 154.713 71.1461L159.08 69.8675C159.724 69.6788 160.265 69.2357 160.602 68.6199C160.94 68.0053 161.034 67.2899 160.867 66.6074Z" fill="#F1F1F1"/>
<path d="M144.715 41.6858C144.295 39.9703 142.636 38.9602 141.015 39.4334C141.003 39.4369 137.246 40.545 137.246 40.545L138.107 38.9746C138.194 38.815 138.145 38.6119 137.996 38.5214C137.847 38.4309 137.655 38.4871 137.568 38.6467L136.323 40.9178C136.236 41.0775 136.286 41.2806 136.434 41.3711L138.55 42.6582C138.699 42.7487 138.891 42.6925 138.978 42.5329C139.066 42.3733 139.016 42.1701 138.867 42.0796L137.398 41.1861L141.169 40.0734L141.17 40.0731C142.457 39.6961 143.776 40.4983 144.11 41.8616C144.271 42.5216 144.181 43.2139 143.854 43.8098C143.527 44.4057 143.004 44.8348 142.385 45.016L137.06 46.5747C136.98 46.5987 136.895 46.5875 136.824 46.5438C136.752 46.5 136.7 46.4289 136.679 46.3431L135.464 41.3791C135.387 41.0667 135.3 40.7128 135.3 40.7101C135.138 40.0501 135.229 39.3577 135.556 38.7618C135.882 38.166 136.406 37.7369 137.029 37.5544C137.975 37.2769 139.109 37.7016 139.611 38.5208C139.704 38.673 139.829 38.9851 139.829 38.9851C139.897 39.153 140.08 39.2285 140.239 39.1539C140.398 39.0792 140.472 38.8829 140.405 38.715C140.405 38.715 140.259 38.3519 140.137 38.1524C139.487 37.092 138.084 36.5594 136.873 36.9146C136.087 37.1445 135.429 37.6843 135.018 38.4346C134.607 39.1843 134.492 40.0544 134.695 40.8847C134.697 40.8937 134.772 41.2022 134.86 41.5564L136.075 46.5204C136.138 46.7769 136.291 46.9908 136.507 47.1221C136.723 47.2534 136.976 47.2864 137.218 47.2155L142.538 45.6577C143.323 45.4278 143.982 44.888 144.393 44.1377C144.804 43.3889 144.919 42.5174 144.715 41.6858Z" fill="#F1F1F1"/>
</svg>
