<svg width="148" height="126" viewBox="0 0 148 126" fill="none" xmlns="http://www.w3.org/2000/svg">
<path d="M24.9194 120.795L12.6802 102.635L24.8944 122.749L24.8688 124.792C25.7624 124.799 26.6472 124.784 27.5233 124.748L26.9163 98.4799L26.9329 98.2772L26.9105 98.2381L26.8524 95.7559L40.2558 76.3392L26.8682 93.8982L26.8207 94.4229L26.3622 74.5766L37.9392 54.4459L26.3292 71.0901L26.4504 29.9738L26.4502 29.8369L26.4462 29.9715L25.6777 62.3767L15.1268 49.2137L25.6432 65.1684L25.4129 82.9204L15.7038 65.5951L25.3772 85.5303L25.249 95.4013L11.1294 71.2674L25.2061 98.8449L24.9194 120.795Z" fill="#3F3D56"/>
<path d="M96.3776 31.5582L96.3713 31.6006L96.3539 31.7231L94.562 44.5335L83.5903 48.5441L83.4183 48.4622L77.2756 45.5558L74.0993 33.414L73.8816 32.5805L73.9479 32.5552L87.5369 27.4689L96.3695 31.5533L96.3776 31.5582Z" fill="#E5E5E5"/>
<path d="M83.5904 48.5441L77.3368 45.6019L73.8816 32.4673L73.9491 32.4417L82.962 36.2085L83.5904 48.5441Z" fill="#E5E5E5"/>
<path opacity="0.2" d="M83.5903 48.3963L78.941 39.3294L79.5381 36.759L76.7258 33.3889L76.4863 33.5959L79.1958 36.8427L77.1718 45.5559L77.4777 45.6297L78.8305 39.8051L83.3117 48.5441L83.5903 48.3963Z" fill="black"/>
<path d="M96.3776 31.7312L96.3539 31.739L82.8011 36.4673L74.0993 33.4363L73.8816 32.5996L73.9479 32.5742L87.5369 27.4689L96.3695 31.5686L96.3713 31.616L96.3776 31.7312Z" fill="#CCCCCC"/>
<path d="M43.6751 11.6033L42.1503 19.125L49.2657 24.3905L52.5695 14.6119L43.6751 11.6033Z" fill="#9F616A"/>
<path d="M49.4913 18.4705C53.284 18.4705 56.3585 15.3959 56.3585 11.6033C56.3585 7.81063 53.284 4.73608 49.4913 4.73608C45.6987 4.73608 42.6241 7.81063 42.6241 11.6033C42.6241 15.3959 45.6987 18.4705 49.4913 18.4705Z" fill="#9F616A"/>
<path d="M34.684 63.4831C34.7152 65.7011 44.3024 90.3869 42.9712 93.6013C40.8729 95.7626 36.3595 107.266 34.4312 110.335C34.1786 110.335 32.9151 114.154 32.9151 114.154C32.9151 114.154 35.9475 118.992 39.2326 116.955C43.3632 107.166 53.7081 101.706 53.8909 88.9468C54.3902 92.9773 55.8641 118.849 55.8641 118.849C55.8641 118.849 55.5814 118.97 61.9457 119.584C62.9337 104.569 66.9715 79.0227 57.9319 62.9736C55.1525 61.7007 34.684 63.4831 34.684 63.4831Z" fill="#2F2E41"/>
<path d="M55.9965 118.163C55.6992 118.738 53.5668 124.041 55.5073 124.573C57.745 125.186 59.9142 124.327 59.9142 124.327C59.9142 124.327 63.8315 125.557 66.2289 123.994C67.3478 122.869 67.0935 121.847 66.5595 121.106C66.2882 120.741 65.9408 120.44 65.5417 120.224C65.1425 120.008 64.7012 119.882 64.2486 119.855C63.032 119.768 62.6457 119.541 62.5063 118.981C62.3029 118.163 55.9965 118.163 55.9965 118.163Z" fill="#2F2E41"/>
<path d="M35.0402 113.664C35.0402 113.664 29.5515 115.395 30.707 117.413C31.4575 118.665 32.5532 119.673 33.8631 120.319C33.8631 120.319 35.0078 125.03 38.1855 125.03C39.7744 125.03 40.316 124.129 40.4604 123.228C40.5257 122.778 40.4919 122.319 40.3613 121.884C40.2306 121.449 40.0063 121.047 39.7041 120.707C38.9019 119.783 38.7877 119.349 39.0845 118.855C39.5178 118.134 35.0402 113.664 35.0402 113.664Z" fill="#2F2E41"/>
<path d="M59.2 64.388C59.2 64.388 58.1866 66.4229 54.1379 65.6589C50.0892 64.8973 34.1477 65.6589 34.1477 65.6589C34.1477 65.6589 35.032 47.4721 33.0077 36.5336C30.9833 25.5951 38.9541 19.363 38.9541 19.363L41.4851 16.8188C44.0161 16.5666 49.3608 24.4613 49.3608 24.4613C51.1196 24.7576 52.7615 32.2728 54.1623 39.3839C54.2451 39.7904 54.323 40.192 54.401 40.5936C55.0465 43.9092 55.9454 47.5994 56.4838 50.9126C56.5228 51.1477 56.5593 51.3803 56.5934 51.6129C57.2334 55.9152 58.1035 60.1798 59.2 64.388Z" fill="#2D3CB9"/>
<path d="M41.5914 7.42479C41.5914 7.42479 40.3227 4.5977 43.6212 3.31266C43.6212 3.31266 46.4122 -1.31349 51.9942 1.77061C51.9942 1.77061 55.8002 3.31266 55.8002 7.42479C55.8002 11.5369 57.0688 12.3079 57.0688 12.3079C57.0688 12.3079 55.1796 10.3447 54.6721 8.80268C54.1647 7.26063 50.2181 6.91078 48.6958 8.45283C47.1734 9.99488 43.3675 9.73787 43.3675 9.73787L43.6212 15.392C43.6212 15.392 42.3526 12.0509 41.8451 12.0509C41.3376 12.0509 40.8302 7.42479 41.5914 7.42479Z" fill="#2F2E41"/>
<path opacity="0.2" d="M56.5951 50.9121C50.5254 47.6082 40.6934 40.3627 37.5214 36.4431C33.3402 31.2799 37.901 27.3555 37.901 27.3555C43.0718 24.0883 49.2541 35.2976 49.2541 35.2976L54.2608 39.3644C54.344 39.7715 54.4224 40.1738 54.5008 40.576C55.1499 43.8971 56.0537 47.5935 56.5951 50.9121Z" fill="black"/>
<path d="M74.5919 47.0636C74.5919 47.0636 83.5944 50.6759 85.0761 46.6152C86.5578 42.5544 77.9685 42.6241 77.9685 42.6241L74.5965 43.0964L74.5919 47.0636Z" fill="#9F616A"/>
<path d="M36.7072 25.7542C36.7072 25.7542 32.1683 29.6624 36.3284 34.7993C40.4885 39.9363 59.6073 50.9122 59.6073 50.9122L72.0609 47.5423L75.5852 48.1878L76.2496 41.5648L71.0577 42.0721L57.8779 39.2631L49.4737 32.4373C49.4737 32.4373 41.8542 22.5043 36.7072 25.7542Z" fill="#2D3CB9"/>
<path opacity="0.2" d="M53.2433 72.9344L53.9904 91.4049L52.096 72.9344H53.2433Z" fill="black"/>
<path d="M148 124.557H-1.52588e-05V125.03H148V124.557Z" fill="#3F3D56"/>
<path d="M85.0196 113.661C84.788 121.506 89.4224 124.381 95.2386 124.549C95.3737 124.553 95.5082 124.556 95.6421 124.556C95.9118 124.558 96.1789 124.554 96.4434 124.543C101.703 124.327 105.867 121.565 106.083 114.269C106.306 106.719 96.8304 96.9087 96.1195 96.183L96.1182 96.1824C96.0912 96.1547 96.0774 96.1409 96.0774 96.1409C96.0774 96.1409 85.2512 105.816 85.0196 113.661Z" fill="#FF966E"/>
<path d="M95.6777 123.36L92.0955 117.926L95.6703 123.945L95.6629 124.556C95.9244 124.558 96.1834 124.554 96.4398 124.543L96.2621 116.682L96.267 116.622L96.2604 116.61L96.2434 115.867L100.166 110.057L96.2481 115.311L96.2342 115.468L96.1 109.529L99.4883 103.505L96.0903 108.486L96.1258 96.1818L96.1257 96.1409L96.1246 96.1811L95.8996 105.878L92.8115 101.939L95.8895 106.714L95.8221 112.026L92.9804 106.842L95.8117 112.807L95.7741 115.761L91.6416 108.539L95.7616 116.792L95.6777 123.36Z" fill="#3F3D56"/>
<path d="M85.1964 32.2251L85.7672 31.9497C87.8018 30.9462 89.1402 30.3001 89.4892 29.1053C89.5596 28.8791 89.5841 28.641 89.5612 28.405C89.5383 28.1691 89.4686 27.9401 89.3561 27.7316C89.2435 27.5231 89.0906 27.3393 88.9062 27.1912C88.7218 27.0431 88.5097 26.9336 88.2825 26.8692C88.0149 26.7916 87.7338 26.7734 87.4586 26.8158C87.1834 26.8583 86.9208 26.9604 86.689 27.1151C86.5773 26.8588 86.4114 26.6299 86.2028 26.4442C85.9943 26.2586 85.7481 26.1208 85.4813 26.0403C85.2556 25.9707 85.0184 25.9473 84.7837 25.9714C84.549 25.9955 84.3216 26.0667 84.1148 26.1807C83.9081 26.2948 83.7263 26.4493 83.5802 26.6353C83.4341 26.8212 83.3266 27.0348 83.2642 27.2633C82.9152 28.4582 83.6932 29.7305 84.8644 31.6826L85.1964 32.2251Z" fill="#FF966E"/>
<path d="M83.147 14.1474L83.4349 14.03C84.4618 13.6007 85.1369 13.3252 85.3454 12.7515C85.387 12.6431 85.4065 12.5274 85.4028 12.4114C85.3991 12.2953 85.3722 12.1813 85.3238 12.0759C85.2753 11.9706 85.2063 11.8761 85.1208 11.7982C85.0353 11.7202 84.9351 11.6602 84.826 11.6219C84.6976 11.5759 84.5606 11.5585 84.4247 11.571C84.2888 11.5834 84.1571 11.6254 84.0388 11.6941C83.9923 11.5654 83.9184 11.4484 83.8223 11.3514C83.7261 11.2544 83.6101 11.1796 83.4821 11.1322C83.374 11.0913 83.2587 11.0727 83.1431 11.0774C83.0276 11.0821 82.9141 11.1101 82.8093 11.1596C82.7046 11.2091 82.6108 11.2792 82.5335 11.3657C82.4561 11.4522 82.3968 11.5534 82.359 11.6632C82.1505 12.2369 82.4908 12.8824 83.0019 13.8721L83.147 14.1474Z" fill="#FF966E"/>
<path d="M80.93 3.78885L81.1701 3.59625C82.0241 2.89883 82.5873 2.447 82.6386 1.82374C82.6503 1.70534 82.6396 1.58564 82.6069 1.47173C82.5743 1.35783 82.5206 1.25203 82.4488 1.16059C82.377 1.06916 82.2886 0.993956 82.189 0.939429C82.0893 0.884903 81.9804 0.852165 81.8686 0.843151C81.7368 0.831652 81.6042 0.850766 81.48 0.899167C81.3558 0.947567 81.243 1.02409 81.1495 1.12343C81.0736 1.00835 80.9751 0.912188 80.8607 0.84162C80.7463 0.771052 80.6188 0.727771 80.4871 0.714784C80.3756 0.703048 80.2629 0.7152 80.1559 0.750521C80.0488 0.785843 79.9496 0.843615 79.8639 0.920418C79.7783 0.997221 79.708 1.0915 79.6573 1.19766C79.6065 1.30382 79.5763 1.41971 79.5685 1.53848C79.5172 2.16174 79.9979 2.71057 80.7249 3.55488L80.93 3.78885Z" fill="#FF966E"/>
<path d="M82.6202 1.32358C82.291 0.944787 81.7202 0.909876 81.3472 1.24577C81.3445 1.24825 80.4815 2.02962 80.4815 2.02962L80.5127 1.51696C80.5159 1.46485 80.4769 1.41999 80.4258 1.41688C80.3746 1.41377 80.3305 1.45357 80.3273 1.50568L80.2822 2.24711C80.279 2.29922 80.318 2.34408 80.3692 2.34719L81.097 2.39146C81.1481 2.39457 81.1923 2.35477 81.1954 2.30266C81.1986 2.25055 81.1596 2.20569 81.1085 2.20258L80.6032 2.17184L81.4693 1.38745L81.4695 1.38728C81.7656 1.12016 82.2192 1.14775 82.4808 1.44879C82.6074 1.59453 82.6707 1.78211 82.6589 1.97663C82.647 2.17116 82.5615 2.34969 82.4191 2.47812L81.1943 3.58265C81.1759 3.59947 81.152 3.60784 81.1273 3.60633C81.1025 3.60483 81.0798 3.59363 81.0634 3.57469L80.111 2.47858C80.051 2.4096 79.9831 2.33145 79.9826 2.33085C79.856 2.18511 79.7927 1.99753 79.8045 1.80301C79.8163 1.60848 79.9019 1.42995 80.0453 1.30064C80.2628 1.10427 80.6193 1.06081 80.8569 1.20159C80.901 1.22769 80.974 1.2901 80.974 1.2901C81.0133 1.32365 81.0718 1.31833 81.1048 1.27823C81.1379 1.23813 81.1328 1.17853 81.0935 1.14499C81.0935 1.14499 81.0085 1.07241 80.9508 1.03811C80.6432 0.855882 80.2011 0.90792 79.9226 1.1593C79.742 1.32223 79.6344 1.5468 79.6195 1.79175C79.6046 2.03651 79.684 2.27228 79.8432 2.45568C79.8449 2.45768 79.904 2.52585 79.9721 2.60401L80.9245 3.70012C80.9737 3.75674 81.0417 3.79052 81.116 3.79504C81.1902 3.79956 81.2618 3.77427 81.3175 3.72403L82.5411 2.62036C82.7217 2.45744 82.8294 2.23286 82.8443 1.98791C82.8593 1.74335 82.7797 1.5072 82.6202 1.32358Z" fill="#F1F1F1"/>
<path d="M79.4356 21.7416L79.4623 21.2101C79.5413 19.3065 79.6036 18.06 78.8696 17.3232C78.7324 17.1806 78.5681 17.067 78.3865 16.9892C78.2049 16.9115 78.0096 16.8711 77.8122 16.8704C77.6149 16.8698 77.4195 16.9089 77.2375 16.9855C77.0556 17.0621 76.8909 17.1747 76.7531 17.3164C76.5894 17.4827 76.4638 17.6828 76.385 17.9028C76.3061 18.1229 76.2759 18.3576 76.2964 18.5906C76.0644 18.5702 75.8308 18.6008 75.6118 18.6802C75.3928 18.7596 75.1937 18.8859 75.0283 19.0504C74.8873 19.189 74.7755 19.3546 74.6994 19.5374C74.6232 19.7202 74.5844 19.9166 74.5852 20.1148C74.586 20.3131 74.6264 20.5092 74.704 20.6916C74.7815 20.8739 74.8947 21.0389 75.0368 21.1766C75.7709 21.9134 77.0117 21.8498 78.9065 21.7689L79.4356 21.7416Z" fill="#FF966E"/>
<path d="M75.2415 7.95399L75.5294 7.83659C76.5563 7.40733 77.2314 7.13183 77.4399 6.55818C77.4815 6.44973 77.501 6.33406 77.4973 6.21801C77.4936 6.10196 77.4667 5.9879 77.4183 5.88257C77.3698 5.77724 77.3008 5.68279 77.2153 5.6048C77.1298 5.52682 77.0296 5.46689 76.9205 5.42856C76.7921 5.38253 76.6551 5.36514 76.5192 5.3776C76.3833 5.39007 76.2516 5.43208 76.1333 5.50073C76.0868 5.37202 76.0129 5.25509 75.9168 5.15805C75.8206 5.06102 75.7046 4.9862 75.5766 4.9388C75.4685 4.89797 75.3532 4.87936 75.2376 4.88407C75.1221 4.88878 75.0086 4.91672 74.9038 4.96623C74.7991 5.01575 74.7053 5.08583 74.628 5.17234C74.5506 5.25884 74.4913 5.36001 74.4535 5.46985C74.245 6.0435 74.5853 6.68903 75.0964 7.67877L75.2415 7.95399Z" fill="#FF966E"/>
<path d="M89.2544 28.1128C88.7468 27.2144 87.6109 26.9097 86.7215 27.4333C86.7149 27.4372 84.6553 28.6572 84.6553 28.6572L84.9286 27.6371C84.9564 27.5334 84.8963 27.427 84.7945 27.3997C84.6927 27.3724 84.5875 27.4345 84.5597 27.5382L84.1643 29.0136C84.1365 29.1173 84.1967 29.2237 84.2985 29.251L85.7468 29.6391C85.8486 29.6663 85.9538 29.6043 85.9816 29.5006C86.0094 29.3969 85.9493 29.2905 85.8475 29.2632L84.842 28.9938L86.9092 27.7689L86.9097 27.7686C87.6161 27.352 88.5187 27.5939 88.9221 28.3079C89.1174 28.6535 89.1679 29.0575 89.0642 29.4446C88.9605 29.8317 88.7148 30.1563 88.3751 30.3566L85.4537 32.0792C85.4097 32.1055 85.3581 32.1126 85.3089 32.0994C85.2597 32.0862 85.2186 32.0543 85.1932 32.0094L83.7242 29.4097C83.6317 29.2461 83.527 29.0607 83.5262 29.0593C83.3309 28.7137 83.2804 28.3097 83.3841 27.9226C83.4878 27.5355 83.7336 27.2109 84.0755 27.0092C84.5944 26.7029 85.3306 26.7617 85.7515 27.1429C85.8299 27.2137 85.9512 27.3694 85.9512 27.3694C86.0166 27.4531 86.1367 27.4664 86.2197 27.3992C86.3027 27.332 86.317 27.2098 86.2516 27.126C86.2516 27.126 86.1102 26.9449 86.0079 26.8521C85.463 26.3586 84.5509 26.2819 83.8865 26.6741C83.4556 26.9282 83.1465 27.3365 83.0159 27.8239C82.8854 28.311 82.9486 28.8187 83.1941 29.2536C83.1968 29.2583 83.2878 29.42 83.3929 29.6054L84.8619 32.2051C84.9378 32.3394 85.0609 32.4354 85.2087 32.475C85.3564 32.5146 85.5111 32.493 85.6439 32.4147L88.5626 30.6933C88.9935 30.4392 89.3026 30.0309 89.4332 29.5434C89.5639 29.0569 89.5005 28.5483 89.2544 28.1128Z" fill="#F1F1F1"/>
<path d="M78.2154 16.8491C77.3315 16.8409 76.619 17.553 76.6265 18.4371C76.6265 18.4436 76.6495 20.494 76.6495 20.494L76.0098 19.8543C75.9448 19.7893 75.8401 19.7883 75.7762 19.8521C75.7124 19.916 75.7134 20.0206 75.7784 20.0857L76.7036 21.0108C76.7686 21.0759 76.8733 21.0768 76.9371 21.013L77.8453 20.1048C77.9091 20.041 77.9082 19.9363 77.8431 19.8713C77.7781 19.8062 77.6734 19.8053 77.6096 19.8691L76.9791 20.4996L76.9559 18.4415L76.9558 18.441C76.9493 17.7386 77.5153 17.1726 78.2178 17.1791C78.5578 17.1823 78.8791 17.3178 79.1219 17.5606C79.3646 17.8033 79.5002 18.1246 79.5033 18.4623L79.53 21.3673C79.5306 21.4113 79.5138 21.4525 79.4829 21.4834C79.452 21.5143 79.4108 21.5311 79.3666 21.5307L76.8089 21.507C76.6479 21.5055 76.4656 21.5038 76.4642 21.5038C76.1241 21.5006 75.8028 21.3651 75.5601 21.1223C75.3174 20.8796 75.1818 20.5583 75.1786 20.2182C75.1736 19.7021 75.5326 19.1812 75.9956 19.0322C76.0817 19.0044 76.2492 18.9811 76.2492 18.9811C76.3393 18.9684 76.4006 18.885 76.3863 18.7946C76.3719 18.7043 76.2874 18.6414 76.1973 18.654C76.1973 18.654 76.0024 18.6813 75.8897 18.7175C75.2903 18.9103 74.8427 19.5541 74.8491 20.215C74.853 20.6434 75.0235 21.0476 75.3292 21.3532C75.6346 21.6587 76.0383 21.8292 76.4661 21.8334C76.4707 21.8334 76.6296 21.8351 76.8122 21.8366L79.3699 21.8603C79.502 21.8615 79.626 21.8113 79.7186 21.7186C79.8112 21.626 79.8615 21.502 79.8603 21.3699L79.8334 18.4675C79.8294 18.039 79.6589 17.6349 79.3532 17.3292C79.0483 17.0238 78.6439 16.853 78.2154 16.8491Z" fill="#F1F1F1"/>
<path d="M85.414 11.9944C85.1751 11.5716 84.6406 11.4282 84.222 11.6746C84.2189 11.6764 83.2496 12.2506 83.2496 12.2506L83.3783 11.7705C83.3913 11.7217 83.363 11.6716 83.3151 11.6588C83.2672 11.6459 83.2177 11.6752 83.2046 11.724L83.0186 12.4183C83.0055 12.4671 83.0338 12.5172 83.0817 12.53L83.7633 12.7127C83.8112 12.7255 83.8607 12.6963 83.8738 12.6475C83.8869 12.5987 83.8586 12.5486 83.8107 12.5358L83.3375 12.409L84.3103 11.8325L84.3106 11.8324C84.643 11.6363 85.0678 11.7502 85.2576 12.0862C85.3496 12.2489 85.3733 12.439 85.3245 12.6211C85.2757 12.8033 85.1601 12.9561 85.0002 13.0503L83.6254 13.861C83.6046 13.8734 83.5804 13.8767 83.5572 13.8705C83.534 13.8643 83.5147 13.8493 83.5028 13.8282L82.8114 12.6047C82.7679 12.5277 82.7186 12.4405 82.7182 12.4398C82.6263 12.2772 82.6026 12.087 82.6514 11.9049C82.7002 11.7227 82.8158 11.5699 82.9768 11.475C83.221 11.3309 83.5674 11.3585 83.7655 11.5379C83.8024 11.5712 83.8595 11.6445 83.8595 11.6445C83.8903 11.6839 83.9468 11.6902 83.9859 11.6585C84.0249 11.6269 84.0316 11.5694 84.0008 11.53C84.0008 11.53 83.9343 11.4448 83.8862 11.4011C83.6297 11.1688 83.2005 11.1327 82.8878 11.3173C82.685 11.4369 82.5396 11.629 82.4781 11.8584C82.4167 12.0877 82.4464 12.3266 82.562 12.5313C82.5632 12.5335 82.606 12.6095 82.6555 12.6968L83.3468 13.9203C83.3825 13.9835 83.4405 14.0287 83.51 14.0473C83.5796 14.0659 83.6523 14.0558 83.7149 14.0189L85.0884 13.2088C85.2912 13.0892 85.4367 12.8971 85.4981 12.6677C85.5597 12.4387 85.5298 12.1993 85.414 11.9944Z" fill="#F1F1F1"/>
<path d="M77.7702 5.42595C77.4792 4.91084 76.8279 4.7361 76.3179 5.03634C76.3141 5.03856 75.1332 5.7381 75.1332 5.7381L75.29 5.15317C75.3059 5.09371 75.2714 5.03271 75.2131 5.01707C75.1547 5.00143 75.0943 5.03703 75.0784 5.09649L74.8517 5.94244C74.8358 6.0019 74.8703 6.0629 74.9286 6.07854L75.7591 6.30105C75.8174 6.31669 75.8778 6.28109 75.8937 6.22163C75.9096 6.16217 75.8752 6.10117 75.8168 6.08553L75.2403 5.93106L76.4256 5.22877L76.4258 5.22861C76.8309 4.98974 77.3484 5.1284 77.5797 5.53779C77.6917 5.73597 77.7206 5.96758 77.6612 6.18953C77.6017 6.41149 77.4608 6.59759 77.2661 6.71244L75.591 7.70015C75.5658 7.71523 75.5362 7.71928 75.508 7.71172C75.4798 7.70415 75.4562 7.68587 75.4416 7.66012L74.5994 6.16953C74.5464 6.07573 74.4863 5.96945 74.4859 5.96864C74.3739 5.77045 74.3449 5.53884 74.4044 5.31689C74.4639 5.09494 74.6047 4.90883 74.8008 4.79319C75.0983 4.61754 75.5204 4.65126 75.7618 4.86985C75.8067 4.91041 75.8763 4.99968 75.8763 4.99968C75.9138 5.04769 75.9826 5.05533 76.0302 5.01678C76.0778 4.97823 76.086 4.90817 76.0485 4.86016C76.0485 4.86016 75.9675 4.75632 75.9088 4.70309C75.5964 4.42015 75.0734 4.37618 74.6924 4.60103C74.4454 4.74672 74.2681 4.98083 74.1933 5.26031C74.1184 5.53958 74.1547 5.83067 74.2954 6.08004C74.297 6.08275 74.3492 6.17542 74.4094 6.28175L75.2517 7.77233C75.2952 7.84933 75.3658 7.90437 75.4505 7.92707C75.5352 7.94977 75.6239 7.93741 75.7001 7.89248L77.3736 6.90551C77.6206 6.75981 77.7978 6.5257 77.8727 6.24622C77.9477 5.96723 77.9113 5.67565 77.7702 5.42595Z" fill="#F1F1F1"/>
<path d="M116.275 115.84C116.091 122.116 119.788 124.416 124.428 124.551C124.535 124.554 124.643 124.556 124.749 124.557C124.965 124.558 125.178 124.555 125.389 124.546C129.585 124.373 132.907 122.164 133.078 116.327C133.256 110.287 125.697 102.438 125.13 101.858L125.129 101.857C125.108 101.835 125.097 101.824 125.097 101.824C125.097 101.824 116.46 109.565 116.275 115.84Z" fill="#FF966E"/>
<path d="M124.842 123.6L121.857 119.252L124.836 124.067L124.829 124.557C125.047 124.558 125.263 124.555 125.477 124.546L125.329 118.257L125.333 118.209L125.327 118.199L125.313 117.605L128.582 112.957L125.317 117.16L125.306 117.286L125.194 112.535L128.017 107.716L125.186 111.7L125.215 101.857L125.215 101.824L125.214 101.856L125.027 109.614L122.453 106.463L125.018 110.282L124.962 114.532L122.594 110.385L124.953 115.157L124.922 117.52L121.478 111.743L124.912 118.345L124.842 123.6Z" fill="#3F3D56"/>
</svg>
