<svg width="153" height="125" viewBox="0 0 153 125" fill="none" xmlns="http://www.w3.org/2000/svg">
<path d="M130.659 124.483L131.071 124.27C125.72 113.876 128.581 100.38 131.924 90.8873C134.193 84.507 137.088 78.369 140.565 72.5638L140.173 72.3149C136.678 78.1497 133.768 84.3189 131.487 90.7317C128.114 100.311 125.232 113.942 130.659 124.483Z" fill="#2F2E41"/>
<path d="M126.691 72.3976L129.699 88.9347L129.243 89.0184L126.236 72.4813L126.691 72.3976Z" fill="#2F2E41"/>
<path d="M146.69 86.4876L147.029 86.8051L131.498 103.574L131.159 103.257L146.69 86.4876Z" fill="#2F2E41"/>
<path d="M118.769 104.908L126.647 115.857L126.271 116.13L118.393 105.181L118.769 104.908Z" fill="#2F2E41"/>
<path d="M125.302 68.0142C124.021 68.0142 122.984 66.9715 122.984 65.6852C122.984 64.3989 124.021 63.3562 125.302 63.3562C126.582 63.3562 127.62 64.3989 127.62 65.6852C127.62 66.9715 126.582 68.0142 125.302 68.0142Z" fill="#FF966E"/>
<path d="M150.569 85.9477C149.288 85.9477 148.251 84.905 148.251 83.6187C148.251 82.3324 149.288 81.2897 150.569 81.2897C151.849 81.2897 152.887 82.3324 152.887 83.6187C152.887 84.905 151.849 85.9477 150.569 85.9477Z" fill="#3F3D56"/>
<path d="M140.369 88.2768C139.089 88.2768 138.051 87.2341 138.051 85.9478C138.051 84.6615 139.089 83.6188 140.369 83.6188C141.65 83.6188 142.687 84.6615 142.687 85.9478C142.687 87.2341 141.65 88.2768 140.369 88.2768Z" fill="#3F3D56"/>
<path d="M145.006 97.3599C143.725 97.3599 142.688 96.3172 142.688 95.0309C142.688 93.7446 143.725 92.7019 145.006 92.7019C146.286 92.7019 147.324 93.7446 147.324 95.0309C147.324 96.3172 146.286 97.3599 145.006 97.3599Z" fill="#FF966E"/>
<path d="M116.029 103.183C114.749 103.183 113.711 102.14 113.711 100.854C113.711 99.5673 114.749 98.5245 116.029 98.5245C117.309 98.5245 118.347 99.5673 118.347 100.854C118.347 102.14 117.309 103.183 116.029 103.183Z" fill="#3F3D56"/>
<path d="M123.679 105.744C122.399 105.744 121.361 104.702 121.361 103.415C121.361 102.129 122.399 101.086 123.679 101.086C124.959 101.086 125.997 102.129 125.997 103.415C125.997 104.702 124.959 105.744 123.679 105.744Z" fill="#3F3D56"/>
<path d="M118.347 113.197C117.067 113.197 116.029 112.154 116.029 110.868C116.029 109.582 117.067 108.539 118.347 108.539C119.627 108.539 120.665 109.582 120.665 110.868C120.665 112.154 119.627 113.197 118.347 113.197Z" fill="#3F3D56"/>
<path d="M142.687 70.809C141.407 70.809 140.369 69.7663 140.369 68.48C140.369 67.1937 141.407 66.151 142.687 66.151C143.967 66.151 145.005 67.1937 145.005 68.48C145.005 69.7663 143.967 70.809 142.687 70.809Z" fill="#3F3D56"/>
<path d="M68.4934 57.3446L61.1937 59.1368C60.629 59.2754 60.0355 59.1753 59.5394 58.8577C59.0433 58.5401 58.6836 58.03 58.5367 57.4359C58.4515 57.0913 58.4411 56.7308 58.5062 56.3813C58.5712 56.0319 58.7101 55.7026 58.9124 55.4181C59.1147 55.1336 59.3751 54.9014 59.6742 54.7388C59.9732 54.5761 60.3032 54.4873 60.6392 54.4791L67.6903 54.3053L68.4934 57.3446Z" fill="#FFB9B9"/>
<path d="M67.7078 58.4637L66.0471 53.4969L76.0029 50.1067L73.3605 26.908C78.118 27.7703 80.3822 31.4999 80.1701 36.316L81.4581 52.1461L67.7078 58.4637Z" fill="#2D3AB9"/>
<path d="M74.6088 21.771H90.9982V13.6624C91.004 11.4724 90.1415 9.36854 88.5978 7.80734C87.8439 7.03819 86.9426 6.42723 85.9473 6.01059C84.952 5.59394 83.8828 5.38006 82.8029 5.3816C80.6464 5.38556 78.5781 6.23375 77.0452 7.7428C75.5123 9.25184 74.638 11.3005 74.6113 13.4458C74.61 13.52 74.6088 13.5906 74.6088 13.6624L74.6088 21.771Z" fill="#2F2E41"/>
<path d="M97.6479 116.438L92.4536 115.844L86.2376 74.0076L73.3796 116.014L67.7596 116.184L74.146 64.5031L73.2093 52.7074L89.1327 47.7006C100.411 55.5466 100.177 83.2596 97.6479 116.438Z" fill="#2F2E41"/>
<path d="M81.4581 20.0587C84.8356 20.0587 87.5736 17.3207 87.5736 13.9432C87.5736 10.5657 84.8356 7.82776 81.4581 7.82776C78.0807 7.82776 75.3427 10.5657 75.3427 13.9432C75.3427 17.3207 78.0807 20.0587 81.4581 20.0587Z" fill="#FFB9B9"/>
<path d="M87.5735 24.9274L77.0549 27.6419C78.8272 24.2887 79.3942 21.1586 78.4344 18.3109L85.8492 17.1233C85.3726 19.8463 85.991 22.6449 87.5735 24.9274Z" fill="#FFB9B9"/>
<path d="M90.8765 50.0114C85.0849 53.71 78.3384 57.9589 73.3562 53.8361L70.9863 42.2771C69.1027 40.5924 69.938 35.3938 72.4844 27.9838C72.6461 27.5134 72.9124 27.0862 73.2629 26.7346C73.6135 26.3829 74.0392 26.116 74.5078 25.9541L78.4346 24.5987C80.1748 26.0682 83.0275 25.1917 86.3906 23.2388L90.284 24.2587L91.9768 37.0076C89.5332 40.684 89.96 45.5792 90.8765 50.0114Z" fill="#2D3AB9"/>
<path d="M86.1059 54.9911L78.6282 56.6936C78.0497 56.8254 77.4418 56.7302 76.9336 56.4285C76.4253 56.1268 76.0568 55.6422 75.9064 55.0778C75.8192 54.7505 75.8085 54.408 75.8751 54.076C75.9418 53.744 76.084 53.4312 76.2912 53.1609C76.4985 52.8907 76.7652 52.67 77.0716 52.5155C77.378 52.361 77.7159 52.2767 78.0602 52.2688L85.2832 52.1038L86.1059 54.9911Z" fill="#FFB9B9"/>
<path d="M96.6934 124.49C95.8321 124.886 95.1106 122.43 94.3841 123.15C92.3519 125.163 87.4767 124.712 87.4767 124.712C87.313 124.659 87.1617 124.573 87.032 124.459C86.9022 124.346 86.7967 124.206 86.7219 124.05C86.647 123.894 86.6043 123.724 86.5965 123.551C86.5886 123.378 86.6156 123.205 86.676 123.043C86.7482 122.848 86.8662 122.675 87.0197 122.537C87.1733 122.399 87.3578 122.3 87.5574 122.25L89.7186 121.705L93.1121 115.687L96.8104 115.215L96.9038 115.369C97.6188 116.531 98.0797 117.834 98.256 119.189C98.4322 120.545 98.3196 121.923 97.9257 123.232C97.6181 124.225 97.1995 124.257 96.6934 124.49Z" fill="#2F2E41"/>
<path d="M72.1974 124.49C71.3181 124.886 70.5817 122.43 69.84 123.15C67.7654 125.163 62.7887 124.712 62.7887 124.712C62.6216 124.659 62.4672 124.573 62.3347 124.459C62.2023 124.346 62.0946 124.206 62.0182 124.05C61.9417 123.894 61.8982 123.724 61.8901 123.551C61.8821 123.378 61.9097 123.205 61.9713 123.043C62.0451 122.848 62.1655 122.675 62.3222 122.537C62.4789 122.399 62.6673 122.3 62.8711 122.25L65.0773 121.705L68.5415 115.687L72.3169 115.215L72.4122 115.369C73.1421 116.531 73.6126 117.834 73.7925 119.189C73.9724 120.545 73.8575 121.923 73.4554 123.232C73.1414 124.225 72.714 124.257 72.1974 124.49Z" fill="#2F2E41"/>
<path d="M88.5519 8.90377L87.005 13.6986L73.6302 13.4671C73.6759 11.7895 74.2584 10.1677 75.2962 8.82821C76.334 7.48877 77.7754 6.49858 79.4189 5.99596C81.0625 5.49334 82.8261 5.50339 84.4635 6.02471C86.1009 6.54604 87.5303 7.55259 88.5519 8.90377H88.5519Z" fill="#2F2E41"/>
<path d="M85.3204 56.0177L83.6597 51.0529L93.6155 47.6641L89.8495 23.9727C92.15 24.3895 94.2212 25.6226 95.6796 27.4439C97.1381 29.2652 97.8852 31.5513 97.7827 33.8792L99.0707 49.7027L85.3204 56.0177Z" fill="#2D3AB9"/>
<path d="M61.644 42.5644L51.2849 44.7652L49.1685 34.697L53.0671 29.5252L56.5757 28.865L60.4743 32.7712L61.644 42.5644Z" fill="#CCCCCC"/>
<path d="M56.7516 43.0529H50.6628L49.8329 38.8701L48.9239 34.2865L50.2824 32.2897L52.8933 33.1217L55.7191 37.1179L56.4281 41.1897L56.4775 41.4796L56.7516 43.0529Z" fill="#E6E6E6"/>
<path d="M67.3288 40.5231L60.1763 41.3404L61.4516 32.4045L64.3347 29.8434L66.8297 30.4428L68.4933 34.2025L67.3288 40.5231Z" fill="#CCCCCC"/>
<path d="M68.2488 35.3348L67.578 38.9816L65.398 51.4078L57.0108 54.0606L56.7212 53.905L52.2011 51.463L49.6578 38.954L49.6705 38.959L56.396 41.632L56.4544 41.2681L56.4951 41.0045L57.0108 37.7668L59.3026 35.3348L66.9631 33.5127L68.2488 35.3348Z" fill="#E6E6E6"/>
<path d="M62.9895 34.7358C64.0027 34.7358 64.8241 33.9692 64.8241 33.0235C64.8241 32.0778 64.0027 31.3112 62.9895 31.3112C61.9762 31.3112 61.1548 32.0778 61.1548 33.0235C61.1548 33.9692 61.9762 34.7358 62.9895 34.7358Z" fill="#E6E6E6"/>
<path d="M58.5668 33.9797L54.5133 34.7015L54.5328 34.8109L58.5863 34.089L58.5668 33.9797Z" fill="white"/>
<path d="M56.7516 53.8161L52.321 51.3706L49.8279 38.8444L49.8404 38.8494L48.9239 34.2802L50.2937 32.2897L52.9262 33.1191L55.7754 37.1026L56.4901 41.1616L56.53 40.8977L56.54 41.4507L56.5673 43.019L56.7516 53.8161Z" fill="#E5E5E5"/>
<path d="M52.2935 51.3699L52.1846 51.3411L54.4272 43.0379L51.8593 39.6953L51.949 39.6282L54.5501 43.0139L52.2935 51.3699Z" fill="#CCCCCC"/>
<path d="M53.5778 46.7166L53.4777 46.7648L56.9994 54.0761L57.0994 54.0279L53.5778 46.7166Z" fill="#CCCCCC"/>
<path opacity="0.2" d="M67.7595 38.2193L67.3448 40.4985L67.3238 40.5007L65.4671 51.1557L57.183 53.7925L57.1333 53.8161L57.1002 53.7474L52.4335 51.2106L52.3799 51.1963L52.4086 51.0886L49.9207 38.7681L49.9334 38.7731L49.6578 37.4206L49.8638 37.1256L50.5005 36.2137L53.1514 37.0377L56.0232 40.9929L56.0652 41.2281L56.3668 42.9156L56.4877 43.5935L56.7434 45.0256L56.9864 43.4869L57.0737 42.9332L57.2935 41.5423L59.5578 39.1252L60.5646 38.884L61.2654 38.7159L62.2297 38.4852C61.9306 38.3044 61.6922 38.0394 61.5448 37.7237C61.3973 37.408 61.3474 37.0558 61.4014 36.7119C61.4553 36.368 61.6108 36.0477 61.8479 35.7917C62.0851 35.5357 62.3933 35.3555 62.7336 35.274C63.0738 35.1925 63.4307 35.2132 63.7591 35.3337C64.0874 35.4541 64.3724 35.6689 64.5779 35.9506C64.7835 36.2324 64.9003 36.5685 64.9135 36.9163C64.9268 37.2642 64.836 37.6081 64.6525 37.9046L67.1239 37.3124L67.733 38.182L67.7595 38.2193Z" fill="black"/>
<path d="M56.9963 47.456H50.7177L48.9239 38.6901L50.3254 36.6927L53.0161 37.5249L55.9312 41.5195L56.9963 47.456Z" fill="#E6E6E6"/>
<path d="M65.6418 55.781L57.2548 58.4638L52.4464 55.8369L49.9024 43.1769L56.64 45.8876L57.2548 41.975L59.5472 39.5157L67.2073 37.6713L68.4934 39.5157L67.8224 43.2048L65.6418 55.781Z" fill="#F2F2F2"/>
<path d="M63.1118 39.1389C64.0575 39.1389 64.8241 38.3723 64.8241 37.4266C64.8241 36.4809 64.0575 35.7142 63.1118 35.7142C62.1661 35.7142 61.3995 36.4809 61.3995 37.4266C61.3995 38.3723 62.1661 39.1389 63.1118 39.1389Z" fill="#F2F2F2"/>
<path d="M56.9963 58.2192L52.4271 55.7737L49.8562 43.2474L49.869 43.2525L48.9239 38.6833L50.3365 36.6927L53.0512 37.5221L55.9895 41.5057L56.7266 45.5647L56.7677 45.3008L56.778 45.8537L56.8062 47.422L56.9963 58.2192Z" fill="#F2F2F2"/>
<path d="M52.5381 55.7729L52.4295 55.7444L54.6718 47.441L52.1039 44.0984L52.1936 44.0312L54.7947 47.4173L52.5381 55.7729Z" fill="#CCCCCC"/>
<path d="M53.7777 51.0918L53.6777 51.14L57.1993 58.4513L57.2994 58.4032L53.7777 51.0918Z" fill="#CCCCCC"/>
<path d="M56.6247 27.4023C56.8573 27.1686 57.1338 26.983 57.4383 26.8562C57.7428 26.7294 58.0694 26.6639 58.3992 26.6635C58.7291 26.663 59.0558 26.7276 59.3607 26.8536C59.6655 26.9796 59.9425 27.1644 60.1758 27.3975C60.409 27.6307 60.594 27.9075 60.72 28.2122C60.846 28.5169 60.9107 28.8435 60.9102 29.1732C60.9098 29.5029 60.8442 29.8292 60.7174 30.1336C60.5905 30.4379 60.4048 30.7143 60.171 30.9468L56.6247 34.4912L53.0785 30.9468C52.6102 30.4763 52.3477 29.8395 52.3486 29.1759C52.3494 28.5123 52.6136 27.8761 53.083 27.4069C53.5525 26.9377 54.189 26.6737 54.8529 26.6728C55.5168 26.672 56.154 26.9343 56.6247 27.4023Z" fill="#F2F2F2"/>
<path d="M47.5738 14.1929C47.8064 13.9591 48.0829 13.7735 48.3874 13.6467C48.6919 13.5199 49.0184 13.4544 49.3483 13.454C49.6782 13.4535 50.0049 13.5181 50.3097 13.6441C50.6146 13.7701 50.8916 13.9549 51.1248 14.1881C51.3581 14.4212 51.543 14.698 51.669 15.0027C51.7951 15.3074 51.8597 15.634 51.8593 15.9637C51.8588 16.2934 51.7933 16.6198 51.6665 16.9241C51.5396 17.2285 51.3539 17.5048 51.12 17.7373L47.5738 21.2818L44.0275 17.7373C43.5593 17.2669 43.2968 16.63 43.2976 15.9664C43.2985 15.3028 43.5626 14.6667 44.0321 14.1974C44.5016 13.7282 45.1381 13.4642 45.802 13.4634C46.4659 13.4625 47.1031 13.7248 47.5738 14.1929Z" fill="#F2F2F2"/>
<path d="M60.7879 2.79255C61.1271 2.45023 61.5298 2.17862 61.9731 1.99327C62.4164 1.80791 62.8916 1.71243 63.3715 1.71228C63.8514 1.71213 64.3267 1.80732 64.7701 1.99241C65.2135 2.1775 65.6164 2.44885 65.9557 2.79097C66.2951 3.1331 66.5642 3.53928 66.7478 3.98631C66.9314 4.43334 67.0258 4.91246 67.0257 5.39629C67.0256 5.88012 66.9308 6.35918 66.747 6.8061C66.5631 7.25302 66.2937 7.65903 65.9542 8.00095L60.7879 13.2093L55.6217 8.00095C55.2821 7.65903 55.0127 7.25302 54.8289 6.8061C54.645 6.35918 54.5503 5.88012 54.5502 5.39629C54.55 4.91246 54.6444 4.43334 54.828 3.98631C55.0116 3.53928 55.2808 3.1331 55.6201 2.79097C55.9595 2.44885 56.3624 2.1775 56.8058 1.99241C57.2492 1.80732 57.7244 1.71213 58.2044 1.71228C58.6843 1.71243 59.1595 1.80791 59.6028 1.99327C60.0461 2.17862 60.4488 2.45023 60.7879 2.79255Z" fill="#F2F2F2"/>
<path d="M52.8436 26.4057C53.8284 25.4451 55.4305 25.4446 56.4164 26.4047C56.4236 26.4118 58.7037 28.6445 58.7037 28.6445V27.2667C58.7037 27.1267 58.8203 27.0129 58.9639 27.0129C59.1075 27.0129 59.2241 27.1267 59.2241 27.2667V29.2593C59.2241 29.3993 59.1075 29.5131 58.9639 29.5131H56.9212C56.7776 29.5131 56.661 29.3993 56.661 29.2593C56.661 29.1192 56.7776 29.0055 56.9212 29.0055H58.3393L56.051 26.7642L56.0504 26.7637C55.2678 26.0002 53.9948 26.0002 53.2121 26.7637C52.8332 27.1333 52.6244 27.6252 52.6244 28.148C52.6244 28.6708 52.8332 29.1627 53.2095 29.5298L56.4464 32.6867C56.4952 32.7347 56.5605 32.761 56.6299 32.761C56.6994 32.761 56.7647 32.7347 56.8139 32.6867L59.6636 29.9069C59.843 29.732 60.0462 29.5338 60.0477 29.5323C60.4266 29.1627 60.6355 28.6708 60.6355 28.148C60.6355 27.6252 60.4266 27.1333 60.0477 26.7637C59.4729 26.2025 58.4834 26.028 57.7951 26.3663C57.6671 26.429 57.4525 26.5842 57.4525 26.5842C57.3369 26.6676 57.1742 26.6439 57.0886 26.5311C57.0031 26.4184 57.0275 26.2596 57.1431 26.1762C57.1431 26.1762 57.3929 25.9957 57.5603 25.9133C58.4513 25.4754 59.6787 25.6868 60.4147 26.4052C60.8921 26.8709 61.1548 27.4897 61.1548 28.148C61.1548 28.8058 60.8926 29.4241 60.4162 29.8892C60.4111 29.8943 60.2343 30.0672 60.0306 30.2654L57.1809 33.0451C57.0337 33.1887 56.8378 33.2681 56.6294 33.2681C56.421 33.2681 56.2251 33.1887 56.0779 33.0451L52.8441 29.8908C52.3668 29.4251 52.104 28.8063 52.104 28.148C52.1034 27.4907 52.3662 26.8714 52.8436 26.4057Z" fill="#FF966E"/>
<path d="M55.1602 1.0463C56.6241 -0.348154 59.0056 -0.348888 60.471 1.04483C60.4818 1.05511 63.8711 4.29611 63.8711 4.29611V2.29617C63.8711 2.09287 64.0445 1.92774 64.2579 1.92774C64.4713 1.92774 64.6447 2.09287 64.6447 2.29617V5.18856C64.6447 5.39185 64.4713 5.55699 64.2579 5.55699H61.2215C61.0081 5.55699 60.8347 5.39185 60.8347 5.18856C60.8347 4.98526 61.0081 4.82013 61.2215 4.82013H63.3295L59.9279 1.56665L59.9271 1.56592C58.7637 0.457693 56.8714 0.457693 55.708 1.56592C55.1448 2.10241 54.8343 2.81652 54.8343 3.5754C54.8343 4.33427 55.1448 5.04838 55.7041 5.5812L60.5157 10.1638C60.5882 10.2335 60.6852 10.2717 60.7885 10.2717C60.8917 10.2717 60.9888 10.2335 61.062 10.1638L65.2981 6.12871C65.5646 5.87477 65.8667 5.58708 65.869 5.58487C66.4322 5.04838 66.7427 4.33427 66.7427 3.5754C66.7427 2.81652 66.4322 2.10241 65.869 1.56592C65.0145 0.751262 63.5437 0.498059 62.5205 0.989053C62.3302 1.08006 62.0112 1.30537 62.0112 1.30537C61.8394 1.42647 61.5975 1.39198 61.4703 1.22831C61.3432 1.06465 61.3794 0.834195 61.5512 0.713098C61.5512 0.713098 61.9226 0.451088 62.1715 0.331458C63.4959 -0.304119 65.3204 0.0026606 66.4145 1.04556C67.1241 1.72151 67.5147 2.61983 67.5147 3.5754C67.5147 4.53023 67.1248 5.42781 66.4168 6.10302C66.4091 6.11036 66.1463 6.36136 65.8436 6.64906L61.6075 10.6842C61.3887 10.8926 61.0974 11.0078 60.7877 11.0078C60.478 11.0078 60.1867 10.8926 59.9679 10.6842L55.1609 6.10523C54.4513 5.42928 54.0607 4.53096 54.0607 3.5754C54.0599 2.6213 54.4506 1.72224 55.1602 1.0463Z" fill="#FF966E"/>
<path d="M43.7727 12.975C44.7309 11.9834 46.2897 11.9829 47.2489 12.9739C47.2559 12.9813 49.4744 15.286 49.4744 15.286V13.8638C49.4744 13.7192 49.5879 13.6018 49.7276 13.6018C49.8673 13.6018 49.9807 13.7192 49.9807 13.8638V15.9206C49.9807 16.0652 49.8673 16.1826 49.7276 16.1826H47.7401C47.6004 16.1826 47.4869 16.0652 47.4869 15.9206C47.4869 15.776 47.6004 15.6586 47.7401 15.6586H49.1199L46.8933 13.345L46.8928 13.3445C46.1313 12.5564 44.8927 12.5564 44.1312 13.3445C43.7626 13.726 43.5593 14.2338 43.5593 14.7735C43.5593 15.3131 43.7626 15.8209 44.1287 16.1998L47.2781 19.4586C47.3255 19.5081 47.3891 19.5353 47.4567 19.5353C47.5242 19.5353 47.5878 19.5081 47.6357 19.4586L50.4084 16.5892C50.5829 16.4086 50.7806 16.204 50.7821 16.2024C51.1507 15.8209 51.354 15.3131 51.354 14.7735C51.354 14.2338 51.1507 13.726 50.7821 13.3445C50.2228 12.7652 49.2601 12.5851 48.5903 12.9343C48.4658 12.999 48.257 13.1592 48.257 13.1592C48.1445 13.2453 47.9862 13.2208 47.903 13.1044C47.8198 12.988 47.8435 12.8242 47.9559 12.738C47.9559 12.738 48.199 12.5517 48.3619 12.4667C49.2288 12.0147 50.423 12.2328 51.1391 12.9745C51.6036 13.4551 51.8593 14.0939 51.8593 14.7735C51.8593 15.4525 51.6041 16.0907 51.1406 16.5709C51.1356 16.5761 50.9636 16.7546 50.7654 16.9592L47.9927 19.8286C47.8495 19.9768 47.6589 20.0587 47.4562 20.0587C47.2534 20.0587 47.0628 19.9768 46.9196 19.8286L43.7732 16.5725C43.3087 16.0918 43.053 15.453 43.053 14.7735C43.0525 14.095 43.3082 13.4557 43.7727 12.975Z" fill="#FF966E"/>
<path d="M152.887 124.511H0.000167847V125H152.887V124.511Z" fill="#3F3D56"/>
<path d="M23.2477 113.255C23.0084 121.359 27.7959 124.329 33.8041 124.503C33.9436 124.507 34.0826 124.509 34.2209 124.51C34.4995 124.512 34.7754 124.508 35.0486 124.496C40.4824 124.273 44.7836 121.42 45.0061 113.884C45.2364 106.084 35.4484 95.9497 34.7141 95.2001L34.7128 95.1993C34.6849 95.1708 34.6706 95.1565 34.6706 95.1565C34.6706 95.1565 23.487 105.152 23.2477 113.255Z" fill="#FF966E"/>
<path d="M34.2577 123.275L30.5572 117.661L34.2501 123.879L34.2424 124.51C34.5126 124.512 34.7801 124.508 35.045 124.496L34.8615 116.376L34.8665 116.314L34.8597 116.302L34.8422 115.534L38.8946 109.532L34.8469 114.96L34.8326 115.122L34.694 108.987L38.1942 102.764L34.684 107.909L34.7206 95.1988L34.7205 95.1565L34.7194 95.1981L34.487 105.216L31.2969 101.146L34.4766 106.079L34.4069 111.566L31.4714 106.21L34.3961 112.373L34.3574 115.425L30.0884 107.964L34.3444 116.489L34.2577 123.275Z" fill="#3F3D56"/>
<path d="M14.1951 115.506C14.0042 121.99 17.8235 124.366 22.6165 124.504C22.7279 124.508 22.8387 124.51 22.949 124.51C23.1713 124.512 23.3914 124.508 23.6094 124.499C27.9442 124.321 31.3755 122.038 31.553 116.009C31.7367 109.769 23.9283 101.662 23.3425 101.062L23.3414 101.062C23.3192 101.039 23.3078 101.027 23.3078 101.027C23.3078 101.027 14.386 109.023 14.1951 115.506Z" fill="#FF966E"/>
<path d="M23.0442 123.522L19.9605 119.031L23.0379 124.005L23.0315 124.51C23.2566 124.512 23.4795 124.508 23.7003 124.499L23.5473 118.003L23.5515 117.953L23.5459 117.943L23.5312 117.329L26.9083 112.528L23.5352 116.87L23.5233 117L23.4077 112.092L26.3246 107.113L23.3994 111.229L23.43 101.061L23.4299 101.027L23.4289 101.061L23.2353 109.075L20.5769 105.819L23.2266 109.765L23.1685 114.155L20.7223 109.871L23.1596 114.801L23.1272 117.242L19.5697 111.273L23.1164 118.093L23.0442 123.522Z" fill="#3F3D56"/>
</svg>
