<svg width="33" height="26" viewBox="0 0 33 26" fill="none" xmlns="http://www.w3.org/2000/svg">
<path d="M29.5112 2.47131C26.0144 -0.822325 20.3256 -0.824059 16.8251 2.46784C16.7994 2.49211 8.70336 10.1472 8.70336 10.1472V5.42345C8.70336 4.94327 8.28926 4.55324 7.77947 4.55324C7.26967 4.55324 6.85557 4.94327 6.85557 5.42345V12.2551C6.85557 12.7353 7.26967 13.1254 7.77947 13.1254H15.0326C15.5424 13.1254 15.9565 12.7353 15.9565 12.2551C15.9565 11.775 15.5424 11.3849 15.0326 11.3849H9.99718L18.1226 3.70036L18.1245 3.69862C20.9035 1.08105 25.4236 1.08105 28.2026 3.69862C29.548 4.96581 30.2897 6.65249 30.2897 8.44492C30.2897 10.2374 29.548 11.924 28.2118 13.1826L16.7184 24.0065C16.5454 24.1712 16.3135 24.2613 16.0669 24.2613C15.8203 24.2613 15.5884 24.1712 15.4135 24.0065L5.2949 14.4757C4.65811 13.876 3.93666 13.1964 3.93114 13.1912C2.58579 11.924 1.8441 10.2374 1.8441 8.44492C1.8441 6.65249 2.58579 4.96581 3.93114 3.69862C5.97217 1.77445 9.48554 1.17639 11.9296 2.3361C12.3842 2.55105 13.1461 3.08323 13.1461 3.08323C13.5566 3.36926 14.1344 3.28778 14.4381 2.90122C14.7418 2.51465 14.6553 1.97033 14.2449 1.6843C14.2449 1.6843 13.3578 1.06545 12.7633 0.78289C9.59964 -0.718315 5.24152 0.00628422 2.62813 2.46958C0.933097 4.06612 0 6.18792 0 8.44492C0 10.7002 0.931254 12.8203 2.6226 14.4151C2.64101 14.4324 3.26859 15.0253 3.99188 15.7048L14.1105 25.2355C14.6332 25.7278 15.3289 26 16.0687 26C16.8086 26 17.5043 25.7278 18.0269 25.2355L29.5093 14.4203C31.2044 12.8237 32.1375 10.7019 32.1375 8.44492C32.1393 6.19138 31.2062 4.06786 29.5112 2.47131Z" fill="#979797"/>
</svg>
