<svg width="26" height="26" viewBox="0 0 26 26" fill="none" xmlns="http://www.w3.org/2000/svg">
<path d="M21.8857 20.1014C20.732 18.2424 18.1921 16.2501 13.0002 16.2501C7.80837 16.2501 5.27012 18.2407 4.11475 20.1014C5.17926 21.4359 6.53098 22.5132 8.06936 23.2531C9.60774 23.993 11.2932 24.3766 13.0002 24.3751C14.7073 24.3766 16.3927 23.993 17.9311 23.2531C19.4695 22.5132 20.8212 21.4359 21.8857 20.1014Z" fill="#979797"/>
<path fill-rule="evenodd" clip-rule="evenodd" d="M13 14.6249C14.2929 14.6249 15.5329 14.1113 16.4471 13.197C17.3614 12.2828 17.875 11.0428 17.875 9.74988C17.875 8.45695 17.3614 7.21697 16.4471 6.30273C15.5329 5.38849 14.2929 4.87488 13 4.87488C11.7071 4.87488 10.4671 5.38849 9.55286 6.30273C8.63861 7.21697 8.125 8.45695 8.125 9.74988C8.125 11.0428 8.63861 12.2828 9.55286 13.197C10.4671 14.1113 11.7071 14.6249 13 14.6249Z" fill="#979797"/>
<path fill-rule="evenodd" clip-rule="evenodd" d="M13 1.625C9.98316 1.625 7.08989 2.82343 4.95666 4.95666C2.82343 7.08989 1.625 9.98316 1.625 13C1.625 16.0168 2.82343 18.9101 4.95666 21.0433C7.08989 23.1766 9.98316 24.375 13 24.375C16.0168 24.375 18.9101 23.1766 21.0433 21.0433C23.1766 18.9101 24.375 16.0168 24.375 13C24.375 9.98316 23.1766 7.08989 21.0433 4.95666C18.9101 2.82343 16.0168 1.625 13 1.625ZM0 13C0 9.55219 1.36964 6.24558 3.80761 3.80761C6.24558 1.36964 9.55219 0 13 0C16.4478 0 19.7544 1.36964 22.1924 3.80761C24.6304 6.24558 26 9.55219 26 13C26 16.4478 24.6304 19.7544 22.1924 22.1924C19.7544 24.6304 16.4478 26 13 26C9.55219 26 6.24558 24.6304 3.80761 22.1924C1.36964 19.7544 0 16.4478 0 13Z" fill="#979797"/>
</svg>
