<svg width="28" height="26" viewBox="0 0 28 26" fill="none" xmlns="http://www.w3.org/2000/svg">
<path fill-rule="evenodd" clip-rule="evenodd" d="M0 2.78571C0 2.0469 0.305723 1.33834 0.849913 0.815917C1.3941 0.293494 2.13218 0 2.90179 0H8.70536C9.47496 0 10.213 0.293494 10.7572 0.815917C11.3014 1.33834 11.6071 2.0469 11.6071 2.78571V8.35714C11.6071 9.09596 11.3014 9.80452 10.7572 10.3269C10.213 10.8494 9.47496 11.1429 8.70536 11.1429H2.90179C2.13218 11.1429 1.3941 10.8494 0.849913 10.3269C0.305723 9.80452 0 9.09596 0 8.35714V2.78571ZM2.90179 1.85714C2.64525 1.85714 2.39923 1.95497 2.21783 2.12912C2.03643 2.30326 1.93452 2.53944 1.93452 2.78571V8.35714C1.93452 8.60342 2.03643 8.8396 2.21783 9.01374C2.39923 9.18788 2.64525 9.28571 2.90179 9.28571H8.70536C8.96189 9.28571 9.20792 9.18788 9.38931 9.01374C9.57071 8.8396 9.67262 8.60342 9.67262 8.35714V2.78571C9.67262 2.53944 9.57071 2.30326 9.38931 2.12912C9.20792 1.95497 8.96189 1.85714 8.70536 1.85714H2.90179ZM15.4762 2.78571C15.4762 2.0469 15.7819 1.33834 16.3261 0.815917C16.8703 0.293494 17.6084 0 18.378 0H24.1815C24.9511 0 25.6892 0.293494 26.2334 0.815917C26.7776 1.33834 27.0833 2.0469 27.0833 2.78571V8.35714C27.0833 9.09596 26.7776 9.80452 26.2334 10.3269C25.6892 10.8494 24.9511 11.1429 24.1815 11.1429H18.378C17.6084 11.1429 16.8703 10.8494 16.3261 10.3269C15.7819 9.80452 15.4762 9.09596 15.4762 8.35714V2.78571ZM18.378 1.85714C18.1214 1.85714 17.8754 1.95497 17.694 2.12912C17.5126 2.30326 17.4107 2.53944 17.4107 2.78571V8.35714C17.4107 8.60342 17.5126 8.8396 17.694 9.01374C17.8754 9.18788 18.1214 9.28571 18.378 9.28571H24.1815C24.4381 9.28571 24.6841 9.18788 24.8655 9.01374C25.0469 8.8396 25.1488 8.60342 25.1488 8.35714V2.78571C25.1488 2.53944 25.0469 2.30326 24.8655 2.12912C24.6841 1.95497 24.4381 1.85714 24.1815 1.85714H18.378ZM0 17.6429C0 16.904 0.305723 16.1955 0.849913 15.6731C1.3941 15.1506 2.13218 14.8571 2.90179 14.8571H8.70536C9.47496 14.8571 10.213 15.1506 10.7572 15.6731C11.3014 16.1955 11.6071 16.904 11.6071 17.6429V23.2143C11.6071 23.9531 11.3014 24.6617 10.7572 25.1841C10.213 25.7065 9.47496 26 8.70536 26H2.90179C2.13218 26 1.3941 25.7065 0.849913 25.1841C0.305723 24.6617 0 23.9531 0 23.2143V17.6429ZM2.90179 16.7143C2.64525 16.7143 2.39923 16.8121 2.21783 16.9863C2.03643 17.1604 1.93452 17.3966 1.93452 17.6429V23.2143C1.93452 23.4606 2.03643 23.6967 2.21783 23.8709C2.39923 24.045 2.64525 24.1429 2.90179 24.1429H8.70536C8.96189 24.1429 9.20792 24.045 9.38931 23.8709C9.57071 23.6967 9.67262 23.4606 9.67262 23.2143V17.6429C9.67262 17.3966 9.57071 17.1604 9.38931 16.9863C9.20792 16.8121 8.96189 16.7143 8.70536 16.7143H2.90179ZM15.4762 17.6429C15.4762 16.904 15.7819 16.1955 16.3261 15.6731C16.8703 15.1506 17.6084 14.8571 18.378 14.8571H24.1815C24.9511 14.8571 25.6892 15.1506 26.2334 15.6731C26.7776 16.1955 27.0833 16.904 27.0833 17.6429V23.2143C27.0833 23.9531 26.7776 24.6617 26.2334 25.1841C25.6892 25.7065 24.9511 26 24.1815 26H18.378C17.6084 26 16.8703 25.7065 16.3261 25.1841C15.7819 24.6617 15.4762 23.9531 15.4762 23.2143V17.6429ZM18.378 16.7143C18.1214 16.7143 17.8754 16.8121 17.694 16.9863C17.5126 17.1604 17.4107 17.3966 17.4107 17.6429V23.2143C17.4107 23.4606 17.5126 23.6967 17.694 23.8709C17.8754 24.045 18.1214 24.1429 18.378 24.1429H24.1815C24.4381 24.1429 24.6841 24.045 24.8655 23.8709C25.0469 23.6967 25.1488 23.4606 25.1488 23.2143V17.6429C25.1488 17.3966 25.0469 17.1604 24.8655 16.9863C24.6841 16.8121 24.4381 16.7143 24.1815 16.7143H18.378Z" fill="#979797"/>
</svg>
