<svg width="26" height="26" viewBox="0 0 26 26" fill="none" xmlns="http://www.w3.org/2000/svg">
<path fill-rule="evenodd" clip-rule="evenodd" d="M0 3.25C0 2.38805 0.34241 1.5614 0.951903 0.951903C1.5614 0.34241 2.38805 0 3.25 0L16.25 0C17.112 0 17.9386 0.34241 18.5481 0.951903C19.1576 1.5614 19.5 2.38805 19.5 3.25V6.5H22.75C23.612 6.5 24.4386 6.84241 25.0481 7.4519C25.6576 8.0614 26 8.88805 26 9.75V22.75C26 23.612 25.6576 24.4386 25.0481 25.0481C24.4386 25.6576 23.612 26 22.75 26H9.75C8.88805 26 8.0614 25.6576 7.4519 25.0481C6.84241 24.4386 6.5 23.612 6.5 22.75V19.5H3.25C2.38805 19.5 1.5614 19.1576 0.951903 18.5481C0.34241 17.9386 0 17.112 0 16.25V3.25ZM3.25 1.625C2.81902 1.625 2.4057 1.7962 2.10095 2.10095C1.7962 2.4057 1.625 2.81902 1.625 3.25V16.25C1.625 16.681 1.7962 17.0943 2.10095 17.399C2.4057 17.7038 2.81902 17.875 3.25 17.875H16.25C16.681 17.875 17.0943 17.7038 17.399 17.399C17.7038 17.0943 17.875 16.681 17.875 16.25V3.25C17.875 2.81902 17.7038 2.4057 17.399 2.10095C17.0943 1.7962 16.681 1.625 16.25 1.625H3.25Z" fill="#979797"/>
</svg>
